<svg width="1920" height="650" viewBox="0 0 1920 650" fill="none" xmlns="http://www.w3.org/2000/svg">
<g clip-path="url(#clip0_11_2)">
<rect width="1920" height="650" fill="url(#paint0_linear_11_2)"/>
<circle cx="1438" cy="662" r="226" fill="#0085FF"/>
<path d="M880.924 112.158C892.236 123.268 893.852 144.276 897.286 164.678C900.518 185.08 905.568 204.876 900.114 222.45C894.458 240.024 878.298 255.376 860.32 259.214C842.14 263.052 822.344 255.174 802.75 247.498C783.156 240.024 763.764 232.55 753.058 218.208C742.352 203.866 740.13 182.454 746.998 166.092C753.866 149.528 769.824 138.216 784.772 127.712C799.72 117.208 813.86 107.714 831.434 103.674C848.806 99.634 869.814 101.048 880.924 112.158Z" fill="url(#paint1_linear_11_2)"/>
<g clip-path="url(#clip1_11_2)">
<path d="M449.729 639.29C451.075 639.29 452.167 638.198 452.167 636.852C452.167 635.506 451.075 634.414 449.729 634.414C448.383 634.414 447.292 635.506 447.292 636.852C447.292 638.198 448.383 639.29 449.729 639.29Z" fill="#00FF47"/>
<path d="M431.032 639.29C432.379 639.29 433.47 638.198 433.47 636.852C433.47 635.506 432.379 634.414 431.032 634.414C429.686 634.414 428.595 635.506 428.595 636.852C428.595 638.198 429.686 639.29 431.032 639.29Z" fill="#00FF47"/>
<path d="M412.335 639.29C413.682 639.29 414.773 638.198 414.773 636.852C414.773 635.506 413.682 634.414 412.335 634.414C410.989 634.414 409.898 635.506 409.898 636.852C409.898 638.198 410.989 639.29 412.335 639.29Z" fill="#00FF47"/>
<path d="M393.639 639.29C394.985 639.29 396.076 638.199 396.076 636.852C396.076 635.506 394.985 634.415 393.639 634.415C392.292 634.415 391.201 635.506 391.201 636.852C391.201 638.199 392.292 639.29 393.639 639.29Z" fill="#00FF47"/>
<path d="M468.426 639.29C469.772 639.29 470.864 638.198 470.864 636.852C470.864 635.506 469.772 634.414 468.426 634.414C467.08 634.414 465.988 635.506 465.988 636.852C465.988 638.198 467.08 639.29 468.426 639.29Z" fill="#00FF47"/>
<path d="M487.123 639.29C488.469 639.29 489.56 638.198 489.56 636.852C489.56 635.506 488.469 634.414 487.123 634.414C485.776 634.414 484.685 635.506 484.685 636.852C484.685 638.198 485.776 639.29 487.123 639.29Z" fill="#00FF47"/>
<path d="M505.82 639.29C507.166 639.29 508.257 638.198 508.257 636.852C508.257 635.506 507.166 634.414 505.82 634.414C504.473 634.414 503.382 635.506 503.382 636.852C503.382 638.198 504.473 639.29 505.82 639.29Z" fill="#00FF47"/>
<path d="M524.517 639.29C525.863 639.29 526.954 638.198 526.954 636.852C526.954 635.506 525.863 634.414 524.517 634.414C523.17 634.414 522.079 635.506 522.079 636.852C522.079 638.198 523.17 639.29 524.517 639.29Z" fill="#00FF47"/>
<path d="M543.213 639.29C544.56 639.29 545.651 638.198 545.651 636.852C545.651 635.506 544.56 634.414 543.213 634.414C541.867 634.414 540.776 635.506 540.776 636.852C540.776 638.198 541.867 639.29 543.213 639.29Z" fill="#00FF47"/>
<path d="M561.91 639.29C563.256 639.29 564.348 638.198 564.348 636.852C564.348 635.506 563.256 634.414 561.91 634.414C560.564 634.414 559.472 635.506 559.472 636.852C559.472 638.198 560.564 639.29 561.91 639.29Z" fill="#00FF47"/>
<path d="M580.607 639.29C581.953 639.29 583.045 638.198 583.045 636.852C583.045 635.506 581.953 634.414 580.607 634.414C579.261 634.414 578.169 635.506 578.169 636.852C578.169 638.198 579.261 639.29 580.607 639.29Z" fill="#00FF47"/>
<path d="M599.304 639.29C600.65 639.29 601.741 638.198 601.741 636.852C601.741 635.506 600.65 634.414 599.304 634.414C597.957 634.414 596.866 635.506 596.866 636.852C596.866 638.198 597.957 639.29 599.304 639.29Z" fill="#00FF47"/>
<path d="M449.729 623.055C451.075 623.055 452.167 621.964 452.167 620.617C452.167 619.271 451.075 618.18 449.729 618.18C448.383 618.18 447.292 619.271 447.292 620.617C447.292 621.964 448.383 623.055 449.729 623.055Z" fill="#00FF47"/>
<path d="M431.032 623.055C432.379 623.055 433.47 621.964 433.47 620.617C433.47 619.271 432.379 618.18 431.032 618.18C429.686 618.18 428.595 619.271 428.595 620.617C428.595 621.964 429.686 623.055 431.032 623.055Z" fill="#00FF47"/>
<path d="M412.335 623.055C413.682 623.055 414.773 621.964 414.773 620.617C414.773 619.271 413.682 618.18 412.335 618.18C410.989 618.18 409.898 619.271 409.898 620.617C409.898 621.964 410.989 623.055 412.335 623.055Z" fill="#00FF47"/>
<path d="M393.639 623.055C394.985 623.055 396.076 621.964 396.076 620.617C396.076 619.271 394.985 618.18 393.639 618.18C392.292 618.18 391.201 619.271 391.201 620.617C391.201 621.964 392.292 623.055 393.639 623.055Z" fill="#00FF47"/>
<path d="M468.426 623.055C469.772 623.055 470.864 621.964 470.864 620.617C470.864 619.271 469.772 618.18 468.426 618.18C467.08 618.18 465.988 619.271 465.988 620.617C465.988 621.964 467.08 623.055 468.426 623.055Z" fill="#00FF47"/>
<path d="M487.123 623.055C488.469 623.055 489.56 621.964 489.56 620.617C489.56 619.271 488.469 618.18 487.123 618.18C485.776 618.18 484.685 619.271 484.685 620.617C484.685 621.964 485.776 623.055 487.123 623.055Z" fill="#00FF47"/>
<path d="M505.82 623.055C507.166 623.055 508.257 621.964 508.257 620.617C508.257 619.271 507.166 618.18 505.82 618.18C504.473 618.18 503.382 619.271 503.382 620.617C503.382 621.964 504.473 623.055 505.82 623.055Z" fill="#00FF47"/>
<path d="M524.517 623.055C525.863 623.055 526.954 621.964 526.954 620.617C526.954 619.271 525.863 618.18 524.517 618.18C523.17 618.18 522.079 619.271 522.079 620.617C522.079 621.964 523.17 623.055 524.517 623.055Z" fill="#00FF47"/>
<path d="M543.213 623.055C544.56 623.055 545.651 621.964 545.651 620.617C545.651 619.271 544.56 618.18 543.213 618.18C541.867 618.18 540.776 619.271 540.776 620.617C540.776 621.964 541.867 623.055 543.213 623.055Z" fill="#00FF47"/>
<path d="M561.91 623.055C563.256 623.055 564.348 621.964 564.348 620.617C564.348 619.271 563.256 618.18 561.91 618.18C560.564 618.18 559.472 619.271 559.472 620.617C559.472 621.964 560.564 623.055 561.91 623.055Z" fill="#00FF47"/>
<path d="M580.607 623.055C581.953 623.055 583.045 621.964 583.045 620.617C583.045 619.271 581.953 618.18 580.607 618.18C579.261 618.18 578.169 619.271 578.169 620.617C578.169 621.964 579.261 623.055 580.607 623.055Z" fill="#00FF47"/>
<path d="M599.304 623.055C600.65 623.055 601.741 621.964 601.741 620.617C601.741 619.271 600.65 618.18 599.304 618.18C597.957 618.18 596.866 619.271 596.866 620.617C596.866 621.964 597.957 623.055 599.304 623.055Z" fill="#00FF47"/>
<path d="M449.729 606.82C451.075 606.82 452.167 605.729 452.167 604.382C452.167 603.036 451.075 601.945 449.729 601.945C448.383 601.945 447.292 603.036 447.292 604.382C447.292 605.729 448.383 606.82 449.729 606.82Z" fill="#00FF47"/>
<path d="M431.032 606.82C432.379 606.82 433.47 605.729 433.47 604.382C433.47 603.036 432.379 601.945 431.032 601.945C429.686 601.945 428.595 603.036 428.595 604.382C428.595 605.729 429.686 606.82 431.032 606.82Z" fill="#00FF47"/>
<path d="M412.335 606.82C413.682 606.82 414.773 605.729 414.773 604.382C414.773 603.036 413.682 601.945 412.335 601.945C410.989 601.945 409.898 603.036 409.898 604.382C409.898 605.729 410.989 606.82 412.335 606.82Z" fill="#00FF47"/>
<path d="M393.639 606.82C394.985 606.82 396.076 605.729 396.076 604.382C396.076 603.036 394.985 601.945 393.639 601.945C392.292 601.945 391.201 603.036 391.201 604.382C391.201 605.729 392.292 606.82 393.639 606.82Z" fill="#00FF47"/>
<path d="M468.426 606.82C469.772 606.82 470.864 605.729 470.864 604.382C470.864 603.036 469.772 601.945 468.426 601.945C467.08 601.945 465.988 603.036 465.988 604.382C465.988 605.729 467.08 606.82 468.426 606.82Z" fill="#00FF47"/>
<path d="M487.123 606.82C488.469 606.82 489.56 605.729 489.56 604.382C489.56 603.036 488.469 601.945 487.123 601.945C485.776 601.945 484.685 603.036 484.685 604.382C484.685 605.729 485.776 606.82 487.123 606.82Z" fill="#00FF47"/>
<path d="M505.82 606.82C507.166 606.82 508.257 605.729 508.257 604.382C508.257 603.036 507.166 601.945 505.82 601.945C504.473 601.945 503.382 603.036 503.382 604.382C503.382 605.729 504.473 606.82 505.82 606.82Z" fill="#00FF47"/>
<path d="M524.517 606.82C525.863 606.82 526.954 605.729 526.954 604.382C526.954 603.036 525.863 601.945 524.517 601.945C523.17 601.945 522.079 603.036 522.079 604.382C522.079 605.729 523.17 606.82 524.517 606.82Z" fill="#00FF47"/>
<path d="M543.213 606.82C544.56 606.82 545.651 605.729 545.651 604.382C545.651 603.036 544.56 601.945 543.213 601.945C541.867 601.945 540.776 603.036 540.776 604.382C540.776 605.729 541.867 606.82 543.213 606.82Z" fill="#00FF47"/>
<path d="M561.91 606.82C563.256 606.82 564.348 605.729 564.348 604.382C564.348 603.036 563.256 601.945 561.91 601.945C560.564 601.945 559.472 603.036 559.472 604.382C559.472 605.729 560.564 606.82 561.91 606.82Z" fill="#00FF47"/>
<path d="M580.607 606.82C581.953 606.82 583.045 605.729 583.045 604.382C583.045 603.036 581.953 601.945 580.607 601.945C579.261 601.945 578.169 603.036 578.169 604.382C578.169 605.729 579.261 606.82 580.607 606.82Z" fill="#00FF47"/>
<path d="M599.304 606.82C600.65 606.82 601.741 605.729 601.741 604.382C601.741 603.036 600.65 601.945 599.304 601.945C597.957 601.945 596.866 603.036 596.866 604.382C596.866 605.729 597.957 606.82 599.304 606.82Z" fill="#00FF47"/>
<path d="M449.729 590.585C451.075 590.585 452.167 589.494 452.167 588.147C452.167 586.801 451.075 585.71 449.729 585.71C448.383 585.71 447.292 586.801 447.292 588.147C447.292 589.494 448.383 590.585 449.729 590.585Z" fill="#00FF47"/>
<path d="M431.032 590.585C432.379 590.585 433.47 589.494 433.47 588.147C433.47 586.801 432.379 585.71 431.032 585.71C429.686 585.71 428.595 586.801 428.595 588.147C428.595 589.494 429.686 590.585 431.032 590.585Z" fill="#00FF47"/>
<path d="M412.335 590.585C413.682 590.585 414.773 589.494 414.773 588.147C414.773 586.801 413.682 585.71 412.335 585.71C410.989 585.71 409.898 586.801 409.898 588.147C409.898 589.494 410.989 590.585 412.335 590.585Z" fill="#00FF47"/>
<path d="M393.639 590.585C394.985 590.585 396.076 589.494 396.076 588.147C396.076 586.801 394.985 585.71 393.639 585.71C392.292 585.71 391.201 586.801 391.201 588.147C391.201 589.494 392.292 590.585 393.639 590.585Z" fill="#00FF47"/>
<path d="M468.426 590.585C469.772 590.585 470.864 589.494 470.864 588.147C470.864 586.801 469.772 585.71 468.426 585.71C467.08 585.71 465.988 586.801 465.988 588.147C465.988 589.494 467.08 590.585 468.426 590.585Z" fill="#00FF47"/>
<path d="M487.123 590.585C488.469 590.585 489.56 589.494 489.56 588.147C489.56 586.801 488.469 585.71 487.123 585.71C485.776 585.71 484.685 586.801 484.685 588.147C484.685 589.494 485.776 590.585 487.123 590.585Z" fill="#00FF47"/>
<path d="M505.82 590.585C507.166 590.585 508.257 589.494 508.257 588.147C508.257 586.801 507.166 585.71 505.82 585.71C504.473 585.71 503.382 586.801 503.382 588.147C503.382 589.494 504.473 590.585 505.82 590.585Z" fill="#00FF47"/>
<path d="M524.517 590.585C525.863 590.585 526.954 589.494 526.954 588.147C526.954 586.801 525.863 585.71 524.517 585.71C523.17 585.71 522.079 586.801 522.079 588.147C522.079 589.494 523.17 590.585 524.517 590.585Z" fill="#00FF47"/>
<path d="M543.213 590.585C544.56 590.585 545.651 589.494 545.651 588.147C545.651 586.801 544.56 585.71 543.213 585.71C541.867 585.71 540.776 586.801 540.776 588.147C540.776 589.494 541.867 590.585 543.213 590.585Z" fill="#00FF47"/>
<path d="M561.91 590.585C563.256 590.585 564.348 589.494 564.348 588.147C564.348 586.801 563.256 585.71 561.91 585.71C560.564 585.71 559.472 586.801 559.472 588.147C559.472 589.494 560.564 590.585 561.91 590.585Z" fill="#00FF47"/>
<path d="M580.607 590.585C581.953 590.585 583.045 589.494 583.045 588.147C583.045 586.801 581.953 585.71 580.607 585.71C579.261 585.71 578.169 586.801 578.169 588.147C578.169 589.494 579.261 590.585 580.607 590.585Z" fill="#00FF47"/>
<path d="M599.304 590.585C600.65 590.585 601.741 589.494 601.741 588.147C601.741 586.801 600.65 585.71 599.304 585.71C597.957 585.71 596.866 586.801 596.866 588.147C596.866 589.494 597.957 590.585 599.304 590.585Z" fill="#00FF47"/>
<path d="M449.729 574.351C451.075 574.351 452.167 573.259 452.167 571.913C452.167 570.567 451.075 569.475 449.729 569.475C448.383 569.475 447.292 570.567 447.292 571.913C447.292 573.259 448.383 574.351 449.729 574.351Z" fill="#00FF47"/>
<path d="M431.032 574.351C432.379 574.351 433.47 573.259 433.47 571.913C433.47 570.567 432.379 569.475 431.032 569.475C429.686 569.475 428.595 570.567 428.595 571.913C428.595 573.259 429.686 574.351 431.032 574.351Z" fill="#00FF47"/>
<path d="M412.335 574.351C413.682 574.351 414.773 573.259 414.773 571.913C414.773 570.567 413.682 569.475 412.335 569.475C410.989 569.475 409.898 570.567 409.898 571.913C409.898 573.259 410.989 574.351 412.335 574.351Z" fill="#00FF47"/>
<path d="M393.639 574.351C394.985 574.351 396.076 573.259 396.076 571.913C396.076 570.567 394.985 569.475 393.639 569.475C392.292 569.475 391.201 570.567 391.201 571.913C391.201 573.259 392.292 574.351 393.639 574.351Z" fill="#00FF47"/>
<path d="M468.426 574.351C469.772 574.351 470.864 573.259 470.864 571.913C470.864 570.567 469.772 569.475 468.426 569.475C467.08 569.475 465.988 570.567 465.988 571.913C465.988 573.259 467.08 574.351 468.426 574.351Z" fill="#00FF47"/>
<path d="M487.123 574.351C488.469 574.351 489.56 573.259 489.56 571.913C489.56 570.567 488.469 569.475 487.123 569.475C485.776 569.475 484.685 570.567 484.685 571.913C484.685 573.259 485.776 574.351 487.123 574.351Z" fill="#00FF47"/>
<path d="M505.82 574.351C507.166 574.351 508.257 573.259 508.257 571.913C508.257 570.567 507.166 569.475 505.82 569.475C504.473 569.475 503.382 570.567 503.382 571.913C503.382 573.259 504.473 574.351 505.82 574.351Z" fill="#00FF47"/>
<path d="M524.517 574.351C525.863 574.351 526.954 573.259 526.954 571.913C526.954 570.567 525.863 569.475 524.517 569.475C523.17 569.475 522.079 570.567 522.079 571.913C522.079 573.259 523.17 574.351 524.517 574.351Z" fill="#00FF47"/>
<path d="M543.213 574.351C544.56 574.351 545.651 573.259 545.651 571.913C545.651 570.567 544.56 569.475 543.213 569.475C541.867 569.475 540.776 570.567 540.776 571.913C540.776 573.259 541.867 574.351 543.213 574.351Z" fill="#00FF47"/>
<path d="M561.91 574.351C563.256 574.351 564.348 573.259 564.348 571.913C564.348 570.567 563.256 569.475 561.91 569.475C560.564 569.475 559.472 570.567 559.472 571.913C559.472 573.259 560.564 574.351 561.91 574.351Z" fill="#00FF47"/>
<path d="M580.607 574.351C581.953 574.351 583.045 573.259 583.045 571.913C583.045 570.567 581.953 569.475 580.607 569.475C579.261 569.475 578.169 570.567 578.169 571.913C578.169 573.259 579.261 574.351 580.607 574.351Z" fill="#00FF47"/>
<path d="M599.304 574.351C600.65 574.351 601.741 573.259 601.741 571.913C601.741 570.567 600.65 569.475 599.304 569.475C597.957 569.475 596.866 570.567 596.866 571.913C596.866 573.259 597.957 574.351 599.304 574.351Z" fill="#00FF47"/>
<path d="M449.729 558.116C451.075 558.116 452.167 557.024 452.167 555.678C452.167 554.332 451.075 553.24 449.729 553.24C448.383 553.24 447.292 554.332 447.292 555.678C447.292 557.024 448.383 558.116 449.729 558.116Z" fill="#00FF47"/>
<path d="M431.032 558.116C432.379 558.116 433.47 557.024 433.47 555.678C433.47 554.332 432.379 553.24 431.032 553.24C429.686 553.24 428.595 554.332 428.595 555.678C428.595 557.024 429.686 558.116 431.032 558.116Z" fill="#00FF47"/>
<path d="M412.335 558.116C413.682 558.116 414.773 557.024 414.773 555.678C414.773 554.332 413.682 553.24 412.335 553.24C410.989 553.24 409.898 554.332 409.898 555.678C409.898 557.024 410.989 558.116 412.335 558.116Z" fill="#00FF47"/>
<path d="M393.639 558.116C394.985 558.116 396.076 557.024 396.076 555.678C396.076 554.332 394.985 553.24 393.639 553.24C392.293 553.24 391.201 554.332 391.201 555.678C391.201 557.024 392.293 558.116 393.639 558.116Z" fill="#00FF47"/>
<path d="M468.426 558.116C469.772 558.116 470.864 557.024 470.864 555.678C470.864 554.332 469.772 553.24 468.426 553.24C467.08 553.24 465.988 554.332 465.988 555.678C465.988 557.024 467.08 558.116 468.426 558.116Z" fill="#00FF47"/>
<path d="M487.123 558.116C488.469 558.116 489.56 557.024 489.56 555.678C489.56 554.332 488.469 553.24 487.123 553.24C485.776 553.24 484.685 554.332 484.685 555.678C484.685 557.024 485.776 558.116 487.123 558.116Z" fill="#00FF47"/>
<path d="M505.82 558.116C507.166 558.116 508.257 557.024 508.257 555.678C508.257 554.332 507.166 553.24 505.82 553.24C504.473 553.24 503.382 554.332 503.382 555.678C503.382 557.024 504.473 558.116 505.82 558.116Z" fill="#00FF47"/>
<path d="M524.517 558.116C525.863 558.116 526.954 557.024 526.954 555.678C526.954 554.332 525.863 553.24 524.517 553.24C523.17 553.24 522.079 554.332 522.079 555.678C522.079 557.024 523.17 558.116 524.517 558.116Z" fill="#00FF47"/>
<path d="M543.213 558.116C544.56 558.116 545.651 557.024 545.651 555.678C545.651 554.332 544.56 553.24 543.213 553.24C541.867 553.24 540.776 554.332 540.776 555.678C540.776 557.024 541.867 558.116 543.213 558.116Z" fill="#00FF47"/>
<path d="M561.91 558.116C563.256 558.116 564.348 557.024 564.348 555.678C564.348 554.332 563.256 553.24 561.91 553.24C560.564 553.24 559.472 554.332 559.472 555.678C559.472 557.024 560.564 558.116 561.91 558.116Z" fill="#00FF47"/>
<path d="M580.607 558.116C581.953 558.116 583.045 557.024 583.045 555.678C583.045 554.332 581.953 553.24 580.607 553.24C579.261 553.24 578.169 554.332 578.169 555.678C578.169 557.024 579.261 558.116 580.607 558.116Z" fill="#00FF47"/>
<path d="M599.304 558.116C600.65 558.116 601.741 557.024 601.741 555.678C601.741 554.332 600.65 553.24 599.304 553.24C597.957 553.24 596.866 554.332 596.866 555.678C596.866 557.024 597.957 558.116 599.304 558.116Z" fill="#00FF47"/>
</g>
<rect x="373" y="565" width="216" height="124" stroke="#00FF47" stroke-opacity="0.25" stroke-width="2"/>
</g>
<defs>
<linearGradient id="paint0_linear_11_2" x1="0" y1="0" x2="1920" y2="650" gradientUnits="userSpaceOnUse">
<stop stop-color="#FDFBFB"/>
<stop offset="1" stop-color="#EBEDEE"/>
</linearGradient>
<linearGradient id="paint1_linear_11_2" x1="743.073" y1="260.217" x2="901.679" y2="100.766" gradientUnits="userSpaceOnUse">
<stop stop-color="#F87537"/>
<stop offset="1" stop-color="#FBA81F"/>
</linearGradient>
<clipPath id="clip0_11_2">
<rect width="1920" height="650" fill="white"/>
</clipPath>
<clipPath id="clip1_11_2">
<rect width="210.741" height="119" fill="white" transform="translate(391 553)"/>
</clipPath>
</defs>
</svg>
