<svg width="580" height="800" viewBox="0 0 580 800" fill="none" xmlns="http://www.w3.org/2000/svg">
<g clip-path="url(#clip0_45_2)">
<rect width="580" height="800" fill="url(#paint0_linear_45_2)"/>
<path d="M241.924 192.158C253.236 203.268 254.852 224.276 258.286 244.678C261.518 265.08 266.568 284.876 261.114 302.45C255.458 320.024 239.298 335.376 221.32 339.214C203.14 343.052 183.344 335.174 163.75 327.498C144.156 320.024 124.764 312.55 114.058 298.208C103.352 283.866 101.13 262.454 107.998 246.092C114.866 229.528 130.824 218.216 145.772 207.712C160.72 197.208 174.86 187.714 192.434 183.674C209.806 179.634 230.814 181.048 241.924 192.158Z" fill="url(#paint1_linear_45_2)"/>
<g clip-path="url(#clip1_45_2)">
<path d="M451.729 79.7592C453.075 79.7592 454.167 78.6678 454.167 77.3216C454.167 75.9753 453.075 74.8839 451.729 74.8839C450.383 74.8839 449.292 75.9753 449.292 77.3216C449.292 78.6678 450.383 79.7592 451.729 79.7592Z" fill="#00FF47"/>
<path d="M433.032 79.7592C434.379 79.7592 435.47 78.6678 435.47 77.3216C435.47 75.9753 434.379 74.8839 433.032 74.8839C431.686 74.8839 430.595 75.9753 430.595 77.3216C430.595 78.6678 431.686 79.7592 433.032 79.7592Z" fill="#00FF47"/>
<path d="M414.335 79.7592C415.682 79.7592 416.773 78.6678 416.773 77.3216C416.773 75.9753 415.682 74.8839 414.335 74.8839C412.989 74.8839 411.898 75.9753 411.898 77.3216C411.898 78.6678 412.989 79.7592 414.335 79.7592Z" fill="#00FF47"/>
<path d="M395.639 79.7596C396.985 79.7596 398.076 78.6682 398.076 77.3219C398.076 75.9757 396.985 74.8843 395.639 74.8843C394.292 74.8843 393.201 75.9757 393.201 77.3219C393.201 78.6682 394.292 79.7596 395.639 79.7596Z" fill="#00FF47"/>
<path d="M470.426 79.7592C471.772 79.7592 472.864 78.6678 472.864 77.3216C472.864 75.9753 471.772 74.8839 470.426 74.8839C469.08 74.8839 467.988 75.9753 467.988 77.3216C467.988 78.6678 469.08 79.7592 470.426 79.7592Z" fill="#00FF47"/>
<path d="M489.123 79.7592C490.469 79.7592 491.56 78.6678 491.56 77.3216C491.56 75.9753 490.469 74.8839 489.123 74.8839C487.776 74.8839 486.685 75.9753 486.685 77.3216C486.685 78.6678 487.776 79.7592 489.123 79.7592Z" fill="#00FF47"/>
<path d="M507.82 79.7592C509.166 79.7592 510.257 78.6678 510.257 77.3216C510.257 75.9753 509.166 74.8839 507.82 74.8839C506.473 74.8839 505.382 75.9753 505.382 77.3216C505.382 78.6678 506.473 79.7592 507.82 79.7592Z" fill="#00FF47"/>
<path d="M526.517 79.7592C527.863 79.7592 528.954 78.6678 528.954 77.3216C528.954 75.9753 527.863 74.8839 526.517 74.8839C525.17 74.8839 524.079 75.9753 524.079 77.3216C524.079 78.6678 525.17 79.7592 526.517 79.7592Z" fill="#00FF47"/>
<path d="M545.213 79.7592C546.56 79.7592 547.651 78.6678 547.651 77.3216C547.651 75.9753 546.56 74.8839 545.213 74.8839C543.867 74.8839 542.776 75.9753 542.776 77.3216C542.776 78.6678 543.867 79.7592 545.213 79.7592Z" fill="#00FF47"/>
<path d="M563.91 79.7592C565.256 79.7592 566.348 78.6678 566.348 77.3216C566.348 75.9753 565.256 74.8839 563.91 74.8839C562.564 74.8839 561.472 75.9753 561.472 77.3216C561.472 78.6678 562.564 79.7592 563.91 79.7592Z" fill="#00FF47"/>
<path d="M451.729 63.5246C453.075 63.5246 454.167 62.4332 454.167 61.0869C454.167 59.7407 453.075 58.6493 451.729 58.6493C450.383 58.6493 449.292 59.7407 449.292 61.0869C449.292 62.4332 450.383 63.5246 451.729 63.5246Z" fill="#00FF47"/>
<path d="M433.032 63.5246C434.379 63.5246 435.47 62.4332 435.47 61.0869C435.47 59.7407 434.379 58.6493 433.032 58.6493C431.686 58.6493 430.595 59.7407 430.595 61.0869C430.595 62.4332 431.686 63.5246 433.032 63.5246Z" fill="#00FF47"/>
<path d="M414.335 63.5246C415.682 63.5246 416.773 62.4332 416.773 61.0869C416.773 59.7407 415.682 58.6493 414.335 58.6493C412.989 58.6493 411.898 59.7407 411.898 61.0869C411.898 62.4332 412.989 63.5246 414.335 63.5246Z" fill="#00FF47"/>
<path d="M395.639 63.5246C396.985 63.5246 398.076 62.4332 398.076 61.0869C398.076 59.7407 396.985 58.6493 395.639 58.6493C394.292 58.6493 393.201 59.7407 393.201 61.0869C393.201 62.4332 394.292 63.5246 395.639 63.5246Z" fill="#00FF47"/>
<path d="M470.426 63.5246C471.772 63.5246 472.864 62.4332 472.864 61.0869C472.864 59.7407 471.772 58.6493 470.426 58.6493C469.08 58.6493 467.988 59.7407 467.988 61.0869C467.988 62.4332 469.08 63.5246 470.426 63.5246Z" fill="#00FF47"/>
<path d="M489.123 63.5246C490.469 63.5246 491.56 62.4332 491.56 61.0869C491.56 59.7407 490.469 58.6493 489.123 58.6493C487.776 58.6493 486.685 59.7407 486.685 61.0869C486.685 62.4332 487.776 63.5246 489.123 63.5246Z" fill="#00FF47"/>
<path d="M507.82 63.5246C509.166 63.5246 510.257 62.4332 510.257 61.0869C510.257 59.7407 509.166 58.6493 507.82 58.6493C506.473 58.6493 505.382 59.7407 505.382 61.0869C505.382 62.4332 506.473 63.5246 507.82 63.5246Z" fill="#00FF47"/>
<path d="M526.517 63.5246C527.863 63.5246 528.954 62.4332 528.954 61.0869C528.954 59.7407 527.863 58.6493 526.517 58.6493C525.17 58.6493 524.079 59.7407 524.079 61.0869C524.079 62.4332 525.17 63.5246 526.517 63.5246Z" fill="#00FF47"/>
<path d="M545.213 63.5246C546.56 63.5246 547.651 62.4332 547.651 61.0869C547.651 59.7407 546.56 58.6493 545.213 58.6493C543.867 58.6493 542.776 59.7407 542.776 61.0869C542.776 62.4332 543.867 63.5246 545.213 63.5246Z" fill="#00FF47"/>
<path d="M563.91 63.5246C565.256 63.5246 566.348 62.4332 566.348 61.0869C566.348 59.7407 565.256 58.6493 563.91 58.6493C562.564 58.6493 561.472 59.7407 561.472 61.0869C561.472 62.4332 562.564 63.5246 563.91 63.5246Z" fill="#00FF47"/>
<path d="M451.729 47.2896C453.075 47.2896 454.167 46.1982 454.167 44.852C454.167 43.5057 453.075 42.4143 451.729 42.4143C450.383 42.4143 449.292 43.5057 449.292 44.852C449.292 46.1982 450.383 47.2896 451.729 47.2896Z" fill="#00FF47"/>
<path d="M433.032 47.2896C434.379 47.2896 435.47 46.1982 435.47 44.852C435.47 43.5057 434.379 42.4143 433.032 42.4143C431.686 42.4143 430.595 43.5057 430.595 44.852C430.595 46.1982 431.686 47.2896 433.032 47.2896Z" fill="#00FF47"/>
<path d="M414.335 47.2896C415.682 47.2896 416.773 46.1982 416.773 44.852C416.773 43.5057 415.682 42.4143 414.335 42.4143C412.989 42.4143 411.898 43.5057 411.898 44.852C411.898 46.1982 412.989 47.2896 414.335 47.2896Z" fill="#00FF47"/>
<path d="M395.639 47.2901C396.985 47.2901 398.076 46.1987 398.076 44.8525C398.076 43.5062 396.985 42.4148 395.639 42.4148C394.292 42.4148 393.201 43.5062 393.201 44.8525C393.201 46.1987 394.292 47.2901 395.639 47.2901Z" fill="#00FF47"/>
<path d="M470.426 47.2896C471.772 47.2896 472.864 46.1982 472.864 44.852C472.864 43.5057 471.772 42.4143 470.426 42.4143C469.08 42.4143 467.988 43.5057 467.988 44.852C467.988 46.1982 469.08 47.2896 470.426 47.2896Z" fill="#00FF47"/>
<path d="M489.123 47.2896C490.469 47.2896 491.56 46.1982 491.56 44.852C491.56 43.5057 490.469 42.4143 489.123 42.4143C487.776 42.4143 486.685 43.5057 486.685 44.852C486.685 46.1982 487.776 47.2896 489.123 47.2896Z" fill="#00FF47"/>
<path d="M507.82 47.2896C509.166 47.2896 510.257 46.1982 510.257 44.852C510.257 43.5057 509.166 42.4143 507.82 42.4143C506.473 42.4143 505.382 43.5057 505.382 44.852C505.382 46.1982 506.473 47.2896 507.82 47.2896Z" fill="#00FF47"/>
<path d="M526.517 47.2896C527.863 47.2896 528.954 46.1982 528.954 44.852C528.954 43.5057 527.863 42.4143 526.517 42.4143C525.17 42.4143 524.079 43.5057 524.079 44.852C524.079 46.1982 525.17 47.2896 526.517 47.2896Z" fill="#00FF47"/>
<path d="M545.213 47.2896C546.56 47.2896 547.651 46.1982 547.651 44.852C547.651 43.5057 546.56 42.4143 545.213 42.4143C543.867 42.4143 542.776 43.5057 542.776 44.852C542.776 46.1982 543.867 47.2896 545.213 47.2896Z" fill="#00FF47"/>
<path d="M563.91 47.2896C565.256 47.2896 566.348 46.1982 566.348 44.852C566.348 43.5057 565.256 42.4143 563.91 42.4143C562.564 42.4143 561.472 43.5057 561.472 44.852C561.472 46.1982 562.564 47.2896 563.91 47.2896Z" fill="#00FF47"/>
<path d="M451.729 31.0551C453.075 31.0551 454.167 29.9637 454.167 28.6175C454.167 27.2712 453.075 26.1798 451.729 26.1798C450.383 26.1798 449.292 27.2712 449.292 28.6175C449.292 29.9637 450.383 31.0551 451.729 31.0551Z" fill="#00FF47"/>
<path d="M433.032 31.0551C434.379 31.0551 435.47 29.9637 435.47 28.6175C435.47 27.2712 434.379 26.1798 433.032 26.1798C431.686 26.1798 430.595 27.2712 430.595 28.6175C430.595 29.9637 431.686 31.0551 433.032 31.0551Z" fill="#00FF47"/>
<path d="M414.335 31.0551C415.682 31.0551 416.773 29.9637 416.773 28.6175C416.773 27.2712 415.682 26.1798 414.335 26.1798C412.989 26.1798 411.898 27.2712 411.898 28.6175C411.898 29.9637 412.989 31.0551 414.335 31.0551Z" fill="#00FF47"/>
<path d="M395.639 31.0551C396.985 31.0551 398.076 29.9637 398.076 28.6175C398.076 27.2712 396.985 26.1798 395.639 26.1798C394.292 26.1798 393.201 27.2712 393.201 28.6175C393.201 29.9637 394.292 31.0551 395.639 31.0551Z" fill="#00FF47"/>
<path d="M470.426 31.0551C471.772 31.0551 472.864 29.9637 472.864 28.6175C472.864 27.2712 471.772 26.1798 470.426 26.1798C469.08 26.1798 467.988 27.2712 467.988 28.6175C467.988 29.9637 469.08 31.0551 470.426 31.0551Z" fill="#00FF47"/>
<path d="M489.123 31.0551C490.469 31.0551 491.56 29.9637 491.56 28.6175C491.56 27.2712 490.469 26.1798 489.123 26.1798C487.776 26.1798 486.685 27.2712 486.685 28.6175C486.685 29.9637 487.776 31.0551 489.123 31.0551Z" fill="#00FF47"/>
<path d="M507.82 31.0551C509.166 31.0551 510.257 29.9637 510.257 28.6175C510.257 27.2712 509.166 26.1798 507.82 26.1798C506.473 26.1798 505.382 27.2712 505.382 28.6175C505.382 29.9637 506.473 31.0551 507.82 31.0551Z" fill="#00FF47"/>
<path d="M526.517 31.0551C527.863 31.0551 528.954 29.9637 528.954 28.6175C528.954 27.2712 527.863 26.1798 526.517 26.1798C525.17 26.1798 524.079 27.2712 524.079 28.6175C524.079 29.9637 525.17 31.0551 526.517 31.0551Z" fill="#00FF47"/>
<path d="M545.213 31.0551C546.56 31.0551 547.651 29.9637 547.651 28.6175C547.651 27.2712 546.56 26.1798 545.213 26.1798C543.867 26.1798 542.776 27.2712 542.776 28.6175C542.776 29.9637 543.867 31.0551 545.213 31.0551Z" fill="#00FF47"/>
<path d="M563.91 31.0551C565.256 31.0551 566.348 29.9637 566.348 28.6175C566.348 27.2712 565.256 26.1798 563.91 26.1798C562.564 26.1798 561.472 27.2712 561.472 28.6175C561.472 29.9637 562.564 31.0551 563.91 31.0551Z" fill="#00FF47"/>
<path d="M451.729 14.8201C453.075 14.8201 454.167 13.7288 454.167 12.3825C454.167 11.0362 453.075 9.94482 451.729 9.94482C450.383 9.94482 449.292 11.0362 449.292 12.3825C449.292 13.7288 450.383 14.8201 451.729 14.8201Z" fill="#00FF47"/>
<path d="M433.032 14.8201C434.379 14.8201 435.47 13.7288 435.47 12.3825C435.47 11.0362 434.379 9.94482 433.032 9.94482C431.686 9.94482 430.595 11.0362 430.595 12.3825C430.595 13.7288 431.686 14.8201 433.032 14.8201Z" fill="#00FF47"/>
<path d="M414.335 14.8201C415.682 14.8201 416.773 13.7288 416.773 12.3825C416.773 11.0362 415.682 9.94482 414.335 9.94482C412.989 9.94482 411.898 11.0362 411.898 12.3825C411.898 13.7288 412.989 14.8201 414.335 14.8201Z" fill="#00FF47"/>
<path d="M395.639 14.8201C396.985 14.8201 398.076 13.7288 398.076 12.3825C398.076 11.0362 396.985 9.94482 395.639 9.94482C394.292 9.94482 393.201 11.0362 393.201 12.3825C393.201 13.7288 394.292 14.8201 395.639 14.8201Z" fill="#00FF47"/>
<path d="M470.426 14.8201C471.772 14.8201 472.864 13.7288 472.864 12.3825C472.864 11.0362 471.772 9.94482 470.426 9.94482C469.08 9.94482 467.988 11.0362 467.988 12.3825C467.988 13.7288 469.08 14.8201 470.426 14.8201Z" fill="#00FF47"/>
<path d="M489.123 14.8201C490.469 14.8201 491.56 13.7288 491.56 12.3825C491.56 11.0362 490.469 9.94482 489.123 9.94482C487.776 9.94482 486.685 11.0362 486.685 12.3825C486.685 13.7288 487.776 14.8201 489.123 14.8201Z" fill="#00FF47"/>
<path d="M507.82 14.8201C509.166 14.8201 510.257 13.7288 510.257 12.3825C510.257 11.0362 509.166 9.94482 507.82 9.94482C506.473 9.94482 505.382 11.0362 505.382 12.3825C505.382 13.7288 506.473 14.8201 507.82 14.8201Z" fill="#00FF47"/>
<path d="M526.517 14.8201C527.863 14.8201 528.954 13.7288 528.954 12.3825C528.954 11.0362 527.863 9.94482 526.517 9.94482C525.17 9.94482 524.079 11.0362 524.079 12.3825C524.079 13.7288 525.17 14.8201 526.517 14.8201Z" fill="#00FF47"/>
<path d="M545.213 14.8201C546.56 14.8201 547.651 13.7288 547.651 12.3825C547.651 11.0362 546.56 9.94482 545.213 9.94482C543.867 9.94482 542.776 11.0362 542.776 12.3825C542.776 13.7288 543.867 14.8201 545.213 14.8201Z" fill="#00FF47"/>
<path d="M563.91 14.8201C565.256 14.8201 566.348 13.7288 566.348 12.3825C566.348 11.0362 565.256 9.94482 563.91 9.94482C562.564 9.94482 561.472 11.0362 561.472 12.3825C561.472 13.7288 562.564 14.8201 563.91 14.8201Z" fill="#00FF47"/>
</g>
<rect x="375" y="-27" width="216" height="124" stroke="#00FF47" stroke-opacity="0.25" stroke-width="2"/>
<circle cx="435" cy="866" r="226" fill="#0085FF"/>
</g>
<defs>
<linearGradient id="paint0_linear_45_2" x1="0" y1="0" x2="580" y2="800" gradientUnits="userSpaceOnUse">
<stop stop-color="#FDFBFB"/>
<stop offset="1" stop-color="#EBEDEE"/>
</linearGradient>
<linearGradient id="paint1_linear_45_2" x1="104.073" y1="340.217" x2="262.679" y2="180.766" gradientUnits="userSpaceOnUse">
<stop stop-color="#F87537"/>
<stop offset="1" stop-color="#FBA81F"/>
</linearGradient>
<clipPath id="clip0_45_2">
<rect width="580" height="800" fill="white"/>
</clipPath>
<clipPath id="clip1_45_2">
<rect width="210.741" height="119" fill="white" transform="translate(393 -39)"/>
</clipPath>
</defs>
</svg>
