<svg width="500" height="330" viewBox="0 0 500 330" fill="none" xmlns="http://www.w3.org/2000/svg">
<g clip-path="url(#clip0_42_4048)" filter="url(#filter0_i_42_4048)">
<path d="M500 0H0V330H500V0Z" fill="white"/>
<circle cx="472" cy="10" r="73" fill="#B0FFF5"/>
<path d="M85.5101 -54.6195C94.4965 -45.7936 95.7802 -29.1047 98.5082 -12.8972C101.076 3.31038 105.088 19.0365 100.755 32.9974C96.2616 46.9583 83.424 59.1541 69.1421 62.203C54.6998 65.252 38.9737 58.9936 23.408 52.8957C7.84239 46.9583 -7.56277 41.0209 -16.0677 29.6275C-24.5726 18.2341 -26.3378 1.22426 -20.8818 -11.7739C-15.4258 -24.9324 -2.74866 -33.9188 9.12616 -42.2633C21.001 -50.6077 32.2339 -58.1498 46.1948 -61.3592C59.9953 -64.5687 76.6842 -63.4454 85.5101 -54.6195Z" fill="url(#paint0_linear_42_4048)"/>
<path d="M111.399 -12.6125C117.176 -6.93877 118.002 3.78983 119.755 14.209C121.406 24.6281 123.985 34.7377 121.2 43.7126C118.311 52.6875 110.058 60.5276 100.877 62.4877C91.5927 64.4477 81.4831 60.4245 71.4766 56.5044C61.4701 52.6875 51.5668 48.8706 46.0993 41.5463C40.6319 34.2219 39.4971 23.287 43.0046 14.9311C46.512 6.47198 54.6616 0.695044 62.2954 -4.66926C69.9292 -10.0335 77.1504 -14.882 86.1253 -16.9452C94.997 -19.0084 105.726 -18.2863 111.399 -12.6125Z" fill="url(#paint1_linear_42_4048)"/>
<path d="M466 430C521.228 430 566 385.228 566 330C566 274.772 521.228 230 466 230C410.772 230 366 274.772 366 330C366 385.228 410.772 430 466 430Z" fill="#0085FF"/>
<path d="M434 431C489.228 431 534 386.228 534 331C534 275.772 489.228 231 434 231C378.772 231 334 275.772 334 331C334 386.228 378.772 431 434 431Z" fill="#0085FF" fill-opacity="0.3"/>
<path d="M3.72916 331.055C5.07544 331.055 6.16682 329.964 6.16682 328.618C6.16682 327.271 5.07544 326.18 3.72916 326.18C2.38288 326.18 1.2915 327.271 1.2915 328.618C1.2915 329.964 2.38288 331.055 3.72916 331.055Z" fill="#00FF47"/>
<path d="M22.4259 331.055C23.7722 331.055 24.8636 329.964 24.8636 328.618C24.8636 327.271 23.7722 326.18 22.4259 326.18C21.0797 326.18 19.9883 327.271 19.9883 328.618C19.9883 329.964 21.0797 331.055 22.4259 331.055Z" fill="#00FF47"/>
<path d="M41.1227 331.055C42.469 331.055 43.5604 329.964 43.5604 328.618C43.5604 327.271 42.469 326.18 41.1227 326.18C39.7764 326.18 38.6851 327.271 38.6851 328.618C38.6851 329.964 39.7764 331.055 41.1227 331.055Z" fill="#00FF47"/>
<path d="M59.8197 331.055C61.166 331.055 62.2574 329.964 62.2574 328.618C62.2574 327.271 61.166 326.18 59.8197 326.18C58.4735 326.18 57.3821 327.271 57.3821 328.618C57.3821 329.964 58.4735 331.055 59.8197 331.055Z" fill="#00FF47"/>
<path d="M78.5165 331.055C79.8628 331.055 80.9542 329.964 80.9542 328.618C80.9542 327.271 79.8628 326.18 78.5165 326.18C77.1702 326.18 76.0789 327.271 76.0789 328.618C76.0789 329.964 77.1702 331.055 78.5165 331.055Z" fill="#00FF47"/>
<path d="M97.2133 331.055C98.5596 331.055 99.6509 329.964 99.6509 328.618C99.6509 327.271 98.5596 326.18 97.2133 326.18C95.867 326.18 94.7756 327.271 94.7756 328.618C94.7756 329.964 95.867 331.055 97.2133 331.055Z" fill="#00FF47"/>
<path d="M115.91 331.055C117.256 331.055 118.348 329.964 118.348 328.618C118.348 327.271 117.256 326.18 115.91 326.18C114.564 326.18 113.472 327.271 113.472 328.618C113.472 329.964 114.564 331.055 115.91 331.055Z" fill="#00FF47"/>
<path d="M134.607 331.055C135.953 331.055 137.045 329.964 137.045 328.618C137.045 327.271 135.953 326.18 134.607 326.18C133.261 326.18 132.169 327.271 132.169 328.618C132.169 329.964 133.261 331.055 134.607 331.055Z" fill="#00FF47"/>
<path d="M153.304 331.055C154.65 331.055 155.741 329.964 155.741 328.618C155.741 327.271 154.65 326.18 153.304 326.18C151.957 326.18 150.866 327.271 150.866 328.618C150.866 329.964 151.957 331.055 153.304 331.055Z" fill="#00FF47"/>
<path d="M3.72916 314.82C5.07544 314.82 6.16682 313.729 6.16682 312.382C6.16682 311.036 5.07544 309.945 3.72916 309.945C2.38288 309.945 1.2915 311.036 1.2915 312.382C1.2915 313.729 2.38288 314.82 3.72916 314.82Z" fill="#00FF47"/>
<path d="M22.4259 314.82C23.7722 314.82 24.8636 313.729 24.8636 312.382C24.8636 311.036 23.7722 309.945 22.4259 309.945C21.0797 309.945 19.9883 311.036 19.9883 312.382C19.9883 313.729 21.0797 314.82 22.4259 314.82Z" fill="#00FF47"/>
<path d="M41.1227 314.82C42.469 314.82 43.5604 313.729 43.5604 312.382C43.5604 311.036 42.469 309.945 41.1227 309.945C39.7764 309.945 38.6851 311.036 38.6851 312.382C38.6851 313.729 39.7764 314.82 41.1227 314.82Z" fill="#00FF47"/>
<path d="M59.8197 314.82C61.166 314.82 62.2574 313.729 62.2574 312.382C62.2574 311.036 61.166 309.945 59.8197 309.945C58.4735 309.945 57.3821 311.036 57.3821 312.382C57.3821 313.729 58.4735 314.82 59.8197 314.82Z" fill="#00FF47"/>
<path d="M78.5165 314.82C79.8628 314.82 80.9542 313.729 80.9542 312.382C80.9542 311.036 79.8628 309.945 78.5165 309.945C77.1702 309.945 76.0789 311.036 76.0789 312.382C76.0789 313.729 77.1702 314.82 78.5165 314.82Z" fill="#00FF47"/>
<path d="M97.2133 314.82C98.5596 314.82 99.6509 313.729 99.6509 312.382C99.6509 311.036 98.5596 309.945 97.2133 309.945C95.867 309.945 94.7756 311.036 94.7756 312.382C94.7756 313.729 95.867 314.82 97.2133 314.82Z" fill="#00FF47"/>
<path d="M115.91 314.82C117.256 314.82 118.348 313.729 118.348 312.382C118.348 311.036 117.256 309.945 115.91 309.945C114.564 309.945 113.472 311.036 113.472 312.382C113.472 313.729 114.564 314.82 115.91 314.82Z" fill="#00FF47"/>
<path d="M134.607 314.82C135.953 314.82 137.045 313.729 137.045 312.382C137.045 311.036 135.953 309.945 134.607 309.945C133.261 309.945 132.169 311.036 132.169 312.382C132.169 313.729 133.261 314.82 134.607 314.82Z" fill="#00FF47"/>
<path d="M153.304 314.82C154.65 314.82 155.741 313.729 155.741 312.382C155.741 311.036 154.65 309.945 153.304 309.945C151.957 309.945 150.866 311.036 150.866 312.382C150.866 313.729 151.957 314.82 153.304 314.82Z" fill="#00FF47"/>
<path d="M3.72916 298.585C5.07544 298.585 6.16682 297.494 6.16682 296.147C6.16682 294.801 5.07544 293.71 3.72916 293.71C2.38288 293.71 1.2915 294.801 1.2915 296.147C1.2915 297.494 2.38288 298.585 3.72916 298.585Z" fill="#00FF47"/>
<path d="M22.4259 298.585C23.7722 298.585 24.8636 297.494 24.8636 296.147C24.8636 294.801 23.7722 293.71 22.4259 293.71C21.0797 293.71 19.9883 294.801 19.9883 296.147C19.9883 297.494 21.0797 298.585 22.4259 298.585Z" fill="#00FF47"/>
<path d="M41.1227 298.585C42.469 298.585 43.5604 297.494 43.5604 296.147C43.5604 294.801 42.469 293.71 41.1227 293.71C39.7764 293.71 38.6851 294.801 38.6851 296.147C38.6851 297.494 39.7764 298.585 41.1227 298.585Z" fill="#00FF47"/>
<path d="M59.8197 298.585C61.166 298.585 62.2574 297.494 62.2574 296.147C62.2574 294.801 61.166 293.71 59.8197 293.71C58.4735 293.71 57.3821 294.801 57.3821 296.147C57.3821 297.494 58.4735 298.585 59.8197 298.585Z" fill="#00FF47"/>
<path d="M78.5165 298.585C79.8628 298.585 80.9542 297.494 80.9542 296.147C80.9542 294.801 79.8628 293.71 78.5165 293.71C77.1702 293.71 76.0789 294.801 76.0789 296.147C76.0789 297.494 77.1702 298.585 78.5165 298.585Z" fill="#00FF47"/>
<path d="M97.2133 298.585C98.5596 298.585 99.6509 297.494 99.6509 296.147C99.6509 294.801 98.5596 293.71 97.2133 293.71C95.867 293.71 94.7756 294.801 94.7756 296.147C94.7756 297.494 95.867 298.585 97.2133 298.585Z" fill="#00FF47"/>
<path d="M115.91 298.585C117.256 298.585 118.348 297.494 118.348 296.147C118.348 294.801 117.256 293.71 115.91 293.71C114.564 293.71 113.472 294.801 113.472 296.147C113.472 297.494 114.564 298.585 115.91 298.585Z" fill="#00FF47"/>
<path d="M134.607 298.585C135.953 298.585 137.045 297.494 137.045 296.147C137.045 294.801 135.953 293.71 134.607 293.71C133.261 293.71 132.169 294.801 132.169 296.147C132.169 297.494 133.261 298.585 134.607 298.585Z" fill="#00FF47"/>
<path d="M153.304 298.585C154.65 298.585 155.741 297.494 155.741 296.147C155.741 294.801 154.65 293.71 153.304 293.71C151.957 293.71 150.866 294.801 150.866 296.147C150.866 297.494 151.957 298.585 153.304 298.585Z" fill="#00FF47"/>
<path d="M3.72916 282.351C5.07544 282.351 6.16682 281.259 6.16682 279.913C6.16682 278.567 5.07544 277.475 3.72916 277.475C2.38288 277.475 1.2915 278.567 1.2915 279.913C1.2915 281.259 2.38288 282.351 3.72916 282.351Z" fill="#00FF47"/>
<path d="M22.4259 282.351C23.7722 282.351 24.8636 281.259 24.8636 279.913C24.8636 278.567 23.7722 277.475 22.4259 277.475C21.0797 277.475 19.9883 278.567 19.9883 279.913C19.9883 281.259 21.0797 282.351 22.4259 282.351Z" fill="#00FF47"/>
<path d="M41.1227 282.351C42.469 282.351 43.5604 281.259 43.5604 279.913C43.5604 278.567 42.469 277.475 41.1227 277.475C39.7764 277.475 38.6851 278.567 38.6851 279.913C38.6851 281.259 39.7764 282.351 41.1227 282.351Z" fill="#00FF47"/>
<path d="M59.8197 282.351C61.166 282.351 62.2574 281.259 62.2574 279.913C62.2574 278.567 61.166 277.475 59.8197 277.475C58.4735 277.475 57.3821 278.567 57.3821 279.913C57.3821 281.259 58.4735 282.351 59.8197 282.351Z" fill="#00FF47"/>
<path d="M78.5165 282.351C79.8628 282.351 80.9542 281.259 80.9542 279.913C80.9542 278.567 79.8628 277.475 78.5165 277.475C77.1702 277.475 76.0789 278.567 76.0789 279.913C76.0789 281.259 77.1702 282.351 78.5165 282.351Z" fill="#00FF47"/>
<path d="M97.2133 282.351C98.5596 282.351 99.6509 281.259 99.6509 279.913C99.6509 278.567 98.5596 277.475 97.2133 277.475C95.867 277.475 94.7756 278.567 94.7756 279.913C94.7756 281.259 95.867 282.351 97.2133 282.351Z" fill="#00FF47"/>
<path d="M115.91 282.351C117.256 282.351 118.348 281.259 118.348 279.913C118.348 278.567 117.256 277.475 115.91 277.475C114.564 277.475 113.472 278.567 113.472 279.913C113.472 281.259 114.564 282.351 115.91 282.351Z" fill="#00FF47"/>
<path d="M134.607 282.351C135.953 282.351 137.045 281.259 137.045 279.913C137.045 278.567 135.953 277.475 134.607 277.475C133.261 277.475 132.169 278.567 132.169 279.913C132.169 281.259 133.261 282.351 134.607 282.351Z" fill="#00FF47"/>
<path d="M153.304 282.351C154.65 282.351 155.741 281.259 155.741 279.913C155.741 278.567 154.65 277.475 153.304 277.475C151.957 277.475 150.866 278.567 150.866 279.913C150.866 281.259 151.957 282.351 153.304 282.351Z" fill="#00FF47"/>
<path d="M3.72916 266.116C5.07544 266.116 6.16682 265.024 6.16682 263.678C6.16682 262.332 5.07544 261.24 3.72916 261.24C2.38288 261.24 1.2915 262.332 1.2915 263.678C1.2915 265.024 2.38288 266.116 3.72916 266.116Z" fill="#00FF47"/>
<path d="M22.4259 266.116C23.7722 266.116 24.8636 265.024 24.8636 263.678C24.8636 262.332 23.7722 261.24 22.4259 261.24C21.0797 261.24 19.9883 262.332 19.9883 263.678C19.9883 265.024 21.0797 266.116 22.4259 266.116Z" fill="#00FF47"/>
<path d="M41.1227 266.116C42.469 266.116 43.5604 265.024 43.5604 263.678C43.5604 262.332 42.469 261.24 41.1227 261.24C39.7764 261.24 38.6851 262.332 38.6851 263.678C38.6851 265.024 39.7764 266.116 41.1227 266.116Z" fill="#00FF47"/>
<path d="M59.8197 266.116C61.166 266.116 62.2574 265.024 62.2574 263.678C62.2574 262.332 61.166 261.24 59.8197 261.24C58.4735 261.24 57.3821 262.332 57.3821 263.678C57.3821 265.024 58.4735 266.116 59.8197 266.116Z" fill="#00FF47"/>
<path d="M78.5165 266.116C79.8628 266.116 80.9542 265.024 80.9542 263.678C80.9542 262.332 79.8628 261.24 78.5165 261.24C77.1702 261.24 76.0789 262.332 76.0789 263.678C76.0789 265.024 77.1702 266.116 78.5165 266.116Z" fill="#00FF47"/>
<path d="M97.2133 266.116C98.5596 266.116 99.6509 265.024 99.6509 263.678C99.6509 262.332 98.5596 261.24 97.2133 261.24C95.867 261.24 94.7756 262.332 94.7756 263.678C94.7756 265.024 95.867 266.116 97.2133 266.116Z" fill="#00FF47"/>
<path d="M115.91 266.116C117.256 266.116 118.348 265.024 118.348 263.678C118.348 262.332 117.256 261.24 115.91 261.24C114.564 261.24 113.472 262.332 113.472 263.678C113.472 265.024 114.564 266.116 115.91 266.116Z" fill="#00FF47"/>
<path d="M134.607 266.116C135.953 266.116 137.045 265.024 137.045 263.678C137.045 262.332 135.953 261.24 134.607 261.24C133.261 261.24 132.169 262.332 132.169 263.678C132.169 265.024 133.261 266.116 134.607 266.116Z" fill="#00FF47"/>
<path d="M153.304 266.116C154.65 266.116 155.741 265.024 155.741 263.678C155.741 262.332 154.65 261.24 153.304 261.24C151.957 261.24 150.866 262.332 150.866 263.678C150.866 265.024 151.957 266.116 153.304 266.116Z" fill="#00FF47"/>
<path d="M143 273H-73V397H143V273Z" stroke="#00FF47" stroke-opacity="0.25" stroke-width="2"/>
<g filter="url(#filter1_d_42_4048)">
<rect x="72" y="47" width="356" height="236" rx="17" fill="white"/>
</g>
<g filter="url(#filter2_d_42_4048)">
<g filter="url(#filter3_di_42_4048)">
<path d="M200.4 126H153.6C144.984 126 138 132.984 138 141.6V188.4C138 197.016 144.984 204 153.6 204H200.4C209.016 204 216 197.016 216 188.4V141.6C216 132.984 209.016 126 200.4 126Z" fill="white"/>
</g>
<path d="M168.389 160.921L166.119 179.617L164.926 184.017C164.707 184.781 164.364 185.366 163.896 185.772C163.444 186.177 162.796 186.38 161.954 186.38H159.637L162.703 160.921L160.854 160.593C160.511 160.531 160.23 160.406 160.012 160.219C159.793 160.016 159.684 159.735 159.684 159.376C159.684 159.361 159.684 159.33 159.684 159.283C159.7 159.236 159.715 159.135 159.731 158.979C159.747 158.807 159.77 158.557 159.801 158.23C159.848 157.887 159.91 157.411 159.988 156.802H163.218L163.428 155.024C163.6 153.651 163.959 152.419 164.505 151.327C165.066 150.235 165.768 149.307 166.611 148.542C167.469 147.778 168.451 147.193 169.559 146.787C170.667 146.382 171.86 146.179 173.139 146.179C174.138 146.179 175.058 146.327 175.9 146.623L175.386 149.619C175.354 149.79 175.276 149.931 175.152 150.04C175.042 150.133 174.902 150.204 174.73 150.25C174.559 150.297 174.364 150.328 174.145 150.344C173.943 150.36 173.732 150.367 173.514 150.367C172.89 150.367 172.312 150.453 171.782 150.625C171.267 150.796 170.807 151.077 170.401 151.467C170.011 151.842 169.684 152.341 169.419 152.965C169.169 153.573 168.99 154.322 168.88 155.211L168.693 156.802H174.075L173.537 160.921H168.389ZM181.44 167.613L175.87 156.592H181.112C181.502 156.592 181.783 156.646 181.954 156.756C182.126 156.865 182.274 157.052 182.399 157.317L185.698 164.478C185.792 164.29 185.893 164.103 186.003 163.916C186.112 163.713 186.237 163.51 186.377 163.308L190.589 157.411C190.776 157.146 190.971 156.943 191.174 156.802C191.377 156.662 191.611 156.592 191.876 156.592H197.118L188.67 167.637L194.848 180.6H189.583C189.193 180.6 188.881 180.499 188.647 180.296C188.428 180.078 188.257 179.828 188.132 179.547L184.458 171.123C184.38 171.295 184.294 171.466 184.201 171.638C184.107 171.81 184.014 171.966 183.92 172.106L178.585 179.547C178.382 179.812 178.156 180.054 177.906 180.273C177.657 180.491 177.352 180.6 176.994 180.6H171.916L181.44 167.613Z" fill="#0085FF"/>
</g>
<path d="M250.487 153.581V156.494H237.803V165.269H248.072V168.072H237.803V177.087H250.487V180H234.208V153.581H250.487ZM255.854 180V164.126L253.789 163.887C253.531 163.825 253.316 163.733 253.144 163.61C252.984 163.475 252.904 163.284 252.904 163.039V161.693H255.854V159.886C255.854 158.817 256.002 157.87 256.297 157.047C256.604 156.211 257.034 155.51 257.587 154.945C258.153 154.367 258.829 153.931 259.615 153.636C260.402 153.341 261.287 153.194 262.27 153.194C263.106 153.194 263.88 153.316 264.593 153.562L264.519 155.203C264.507 155.449 264.403 155.596 264.206 155.646C264.009 155.695 263.733 155.719 263.376 155.719H262.805C262.239 155.719 261.723 155.793 261.256 155.941C260.801 156.088 260.408 156.328 260.076 156.66C259.744 156.991 259.486 157.428 259.302 157.969C259.13 158.509 259.044 159.179 259.044 159.978V161.693H264.446V164.071H259.154V180H255.854ZM268.277 180V164.126L266.212 163.887C265.954 163.825 265.739 163.733 265.567 163.61C265.407 163.475 265.327 163.284 265.327 163.039V161.693H268.277V159.886C268.277 158.817 268.425 157.87 268.72 157.047C269.027 156.211 269.457 155.51 270.01 154.945C270.576 154.367 271.252 153.931 272.038 153.636C272.825 153.341 273.71 153.194 274.693 153.194C275.529 153.194 276.303 153.316 277.016 153.562L276.942 155.203C276.93 155.449 276.826 155.596 276.629 155.646C276.432 155.695 276.156 155.719 275.799 155.719H275.228C274.662 155.719 274.146 155.793 273.679 155.941C273.224 156.088 272.831 156.328 272.499 156.66C272.167 156.991 271.909 157.428 271.725 157.969C271.553 158.509 271.467 159.179 271.467 159.978V161.693H276.869V164.071H271.577V180H268.277ZM287.356 161.029C288.474 161.029 289.507 161.219 290.453 161.601C291.399 161.969 292.217 162.51 292.905 163.223C293.593 163.923 294.128 164.796 294.509 165.841C294.902 166.873 295.099 168.053 295.099 169.381C295.099 169.897 295.044 170.241 294.933 170.413C294.822 170.585 294.613 170.671 294.306 170.671H281.88C281.905 171.851 282.064 172.877 282.359 173.75C282.654 174.623 283.06 175.354 283.576 175.944C284.092 176.522 284.707 176.958 285.42 177.253C286.133 177.536 286.932 177.677 287.817 177.677C288.64 177.677 289.347 177.585 289.937 177.4C290.539 177.204 291.055 176.995 291.485 176.774C291.916 176.552 292.272 176.35 292.555 176.165C292.85 175.969 293.102 175.87 293.311 175.87C293.581 175.87 293.79 175.975 293.937 176.184L294.859 177.382C294.454 177.874 293.968 178.304 293.403 178.673C292.837 179.029 292.229 179.324 291.578 179.558C290.938 179.791 290.275 179.963 289.586 180.074C288.898 180.197 288.216 180.258 287.54 180.258C286.249 180.258 285.057 180.043 283.963 179.613C282.882 179.17 281.942 178.531 281.143 177.695C280.356 176.847 279.741 175.803 279.299 174.561C278.856 173.32 278.635 171.894 278.635 170.284C278.635 168.981 278.832 167.764 279.225 166.634C279.631 165.503 280.208 164.526 280.958 163.702C281.708 162.866 282.624 162.215 283.705 161.748C284.787 161.269 286.004 161.029 287.356 161.029ZM287.429 163.444C285.844 163.444 284.596 163.905 283.687 164.827C282.777 165.736 282.212 167.002 281.991 168.625H292.149C292.149 167.863 292.045 167.168 291.836 166.541C291.627 165.902 291.319 165.355 290.914 164.901C290.508 164.434 290.01 164.077 289.421 163.831C288.843 163.573 288.179 163.444 287.429 163.444ZM302.552 170.432L296.266 161.324H299.418C299.689 161.324 299.885 161.367 300.008 161.453C300.131 161.539 300.242 161.662 300.34 161.822L304.912 168.828C305.023 168.483 305.183 168.139 305.392 167.795L309.411 161.895C309.534 161.723 309.657 161.588 309.779 161.49C309.902 161.379 310.056 161.324 310.24 161.324H313.264L306.977 170.247L313.522 180H310.369C310.099 180 309.884 179.932 309.724 179.797C309.577 179.65 309.454 179.49 309.355 179.318L304.654 171.999C304.568 172.355 304.439 172.675 304.267 172.957L299.916 179.318C299.793 179.49 299.658 179.65 299.51 179.797C299.375 179.932 299.185 180 298.939 180H296.007L302.552 170.432ZM320.414 161.324V180H317.132V161.324H320.414ZM321.151 155.461C321.151 155.781 321.084 156.082 320.948 156.365C320.826 156.635 320.653 156.881 320.432 157.102C320.223 157.311 319.977 157.477 319.695 157.6C319.412 157.723 319.111 157.784 318.791 157.784C318.472 157.784 318.171 157.723 317.888 157.6C317.618 157.477 317.372 157.311 317.151 157.102C316.942 156.881 316.776 156.635 316.653 156.365C316.53 156.082 316.468 155.781 316.468 155.461C316.468 155.142 316.53 154.841 316.653 154.558C316.776 154.263 316.942 154.011 317.151 153.802C317.372 153.581 317.618 153.409 317.888 153.286C318.171 153.163 318.472 153.101 318.791 153.101C319.111 153.101 319.412 153.163 319.695 153.286C319.977 153.409 320.223 153.581 320.432 153.802C320.653 154.011 320.826 154.263 320.948 154.558C321.084 154.841 321.151 155.142 321.151 155.461ZM326.935 180V164.126L324.87 163.887C324.612 163.825 324.397 163.733 324.225 163.61C324.065 163.475 323.985 163.284 323.985 163.039V161.693H326.935V159.886C326.935 158.817 327.083 157.87 327.378 157.047C327.685 156.211 328.115 155.51 328.668 154.945C329.233 154.367 329.909 153.931 330.696 153.636C331.483 153.341 332.368 153.194 333.351 153.194C334.187 153.194 334.961 153.316 335.674 153.562L335.6 155.203C335.588 155.449 335.483 155.596 335.287 155.646C335.09 155.695 334.814 155.719 334.457 155.719H333.886C333.32 155.719 332.804 155.793 332.337 155.941C331.882 156.088 331.489 156.328 331.157 156.66C330.825 156.991 330.567 157.428 330.383 157.969C330.211 158.509 330.125 159.179 330.125 159.978V161.693H335.526V164.071H330.235V180H326.935ZM344.096 185.512C343.986 185.758 343.844 185.955 343.672 186.102C343.512 186.25 343.26 186.324 342.916 186.324H340.483L343.893 178.912L336.187 161.324H339.026C339.309 161.324 339.53 161.398 339.69 161.545C339.85 161.68 339.966 161.834 340.04 162.006L345.036 173.769C345.147 174.039 345.239 174.309 345.313 174.58C345.399 174.85 345.473 175.127 345.534 175.409C345.62 175.127 345.706 174.85 345.792 174.58C345.878 174.309 345.977 174.033 346.087 173.75L350.936 162.006C351.01 161.809 351.133 161.65 351.305 161.527C351.489 161.392 351.686 161.324 351.895 161.324H354.513L344.096 185.512ZM353.971 177.972C353.971 177.652 354.026 177.351 354.137 177.069C354.26 176.786 354.42 176.54 354.616 176.331C354.825 176.122 355.071 175.956 355.354 175.833C355.637 175.71 355.938 175.649 356.257 175.649C356.577 175.649 356.878 175.71 357.161 175.833C357.443 175.956 357.689 176.122 357.898 176.331C358.107 176.54 358.267 176.786 358.377 177.069C358.5 177.351 358.562 177.652 358.562 177.972C358.562 178.304 358.5 178.611 358.377 178.894C358.267 179.164 358.107 179.404 357.898 179.613C357.689 179.822 357.443 179.982 357.161 180.092C356.878 180.215 356.577 180.277 356.257 180.277C355.938 180.277 355.637 180.215 355.354 180.092C355.071 179.982 354.825 179.822 354.616 179.613C354.42 179.404 354.26 179.164 354.137 178.894C354.026 178.611 353.971 178.304 353.971 177.972Z" fill="#0085FF"/>
</g>
<defs>
<filter id="filter0_i_42_4048" x="0" y="0" width="500" height="330" filterUnits="userSpaceOnUse" color-interpolation-filters="sRGB">
<feFlood flood-opacity="0" result="BackgroundImageFix"/>
<feBlend mode="normal" in="SourceGraphic" in2="BackgroundImageFix" result="shape"/>
<feColorMatrix in="SourceAlpha" type="matrix" values="0 0 0 0 0 0 0 0 0 0 0 0 0 0 0 0 0 0 127 0" result="hardAlpha"/>
<feOffset/>
<feGaussianBlur stdDeviation="13"/>
<feComposite in2="hardAlpha" operator="arithmetic" k2="-1" k3="1"/>
<feColorMatrix type="matrix" values="0 0 0 0 0 0 0 0 0 0 0 0 0 0 0 0 0 0 0.4 0"/>
<feBlend mode="normal" in2="shape" result="effect1_innerShadow_42_4048"/>
</filter>
<filter id="filter1_d_42_4048" x="27" y="6" width="446" height="326" filterUnits="userSpaceOnUse" color-interpolation-filters="sRGB">
<feFlood flood-opacity="0" result="BackgroundImageFix"/>
<feColorMatrix in="SourceAlpha" type="matrix" values="0 0 0 0 0 0 0 0 0 0 0 0 0 0 0 0 0 0 127 0" result="hardAlpha"/>
<feOffset dy="4"/>
<feGaussianBlur stdDeviation="22.5"/>
<feComposite in2="hardAlpha" operator="out"/>
<feColorMatrix type="matrix" values="0 0 0 0 0 0 0 0 0 0 0 0 0 0 0 0 0 0 0.25 0"/>
<feBlend mode="normal" in2="BackgroundImageFix" result="effect1_dropShadow_42_4048"/>
<feBlend mode="normal" in="SourceGraphic" in2="effect1_dropShadow_42_4048" result="shape"/>
</filter>
<filter id="filter2_d_42_4048" x="127" y="120.673" width="100" height="100" filterUnits="userSpaceOnUse" color-interpolation-filters="sRGB">
<feFlood flood-opacity="0" result="BackgroundImageFix"/>
<feColorMatrix in="SourceAlpha" type="matrix" values="0 0 0 0 0 0 0 0 0 0 0 0 0 0 0 0 0 0 127 0" result="hardAlpha"/>
<feOffset dy="5.67273"/>
<feGaussianBlur stdDeviation="5.5"/>
<feComposite in2="hardAlpha" operator="out"/>
<feColorMatrix type="matrix" values="0 0 0 0 0 0 0 0 0 0 0 0 0 0 0 0 0 0 0.1 0"/>
<feBlend mode="normal" in2="BackgroundImageFix" result="effect1_dropShadow_42_4048"/>
<feBlend mode="normal" in="SourceGraphic" in2="effect1_dropShadow_42_4048" result="shape"/>
</filter>
<filter id="filter3_di_42_4048" x="106.8" y="102.6" width="140.4" height="140.4" filterUnits="userSpaceOnUse" color-interpolation-filters="sRGB">
<feFlood flood-opacity="0" result="BackgroundImageFix"/>
<feColorMatrix in="SourceAlpha" type="matrix" values="0 0 0 0 0 0 0 0 0 0 0 0 0 0 0 0 0 0 127 0" result="hardAlpha"/>
<feOffset dy="7.8"/>
<feGaussianBlur stdDeviation="15.6"/>
<feColorMatrix type="matrix" values="0 0 0 0 0.392157 0 0 0 0 0.392157 0 0 0 0 0.435294 0 0 0 0.1 0"/>
<feBlend mode="normal" in2="BackgroundImageFix" result="effect1_dropShadow_42_4048"/>
<feBlend mode="normal" in="SourceGraphic" in2="effect1_dropShadow_42_4048" result="shape"/>
<feColorMatrix in="SourceAlpha" type="matrix" values="0 0 0 0 0 0 0 0 0 0 0 0 0 0 0 0 0 0 127 0" result="hardAlpha"/>
<feOffset dy="10.92"/>
<feGaussianBlur stdDeviation="11.7"/>
<feComposite in2="hardAlpha" operator="arithmetic" k2="-1" k3="1"/>
<feColorMatrix type="matrix" values="0 0 0 0 0.870833 0 0 0 0 0.870833 0 0 0 0 0.870833 0 0 0 0.2 0"/>
<feBlend mode="normal" in2="shape" result="effect2_innerShadow_42_4048"/>
</filter>
<linearGradient id="paint0_linear_42_4048" x1="-24" y1="63" x2="101.998" y2="-63.6697" gradientUnits="userSpaceOnUse">
<stop stop-color="#F87537"/>
<stop offset="1" stop-color="#FBA81F"/>
</linearGradient>
<linearGradient id="paint1_linear_42_4048" x1="41" y1="63" x2="121.999" y2="-18.4306" gradientUnits="userSpaceOnUse">
<stop stop-color="#F87537" stop-opacity="0.25"/>
<stop offset="1" stop-color="#FBA81F" stop-opacity="0.25"/>
</linearGradient>
<clipPath id="clip0_42_4048">
<rect width="500" height="330" fill="white"/>
</clipPath>
</defs>
</svg>
