<svg width="270" height="200" viewBox="0 0 270 200" fill="none" xmlns="http://www.w3.org/2000/svg">
<g clip-path="url(#clip0_76_2030)" filter="url(#filter0_i_76_2030)">
<rect width="270" height="200" fill="white"/>
<circle cx="242.42" cy="14.42" r="39.42" fill="#B0FFF5"/>
<path d="M242 254C271.823 254 296 229.823 296 200C296 170.177 271.823 146 242 146C212.177 146 188 170.177 188 200C188 229.823 212.177 254 242 254Z" fill="#0085FF"/>
<path d="M225 251C254.823 251 279 226.823 279 197C279 167.177 254.823 143 225 143C195.177 143 171 167.177 171 197C171 226.823 195.177 251 225 251Z" fill="#0085FF" fill-opacity="0.3"/>
<path d="M67.64 170.35H-49V237.31H67.64V170.35Z" stroke="#00FF47" stroke-opacity="0.25" stroke-width="1.08"/>
<path d="M2.52968 197.7C3.25668 197.7 3.84604 197.111 3.84604 196.384C3.84604 195.657 3.25668 195.068 2.52968 195.068C1.80273 195.068 1.21338 195.657 1.21338 196.384C1.21338 197.111 1.80273 197.7 2.52968 197.7Z" fill="#00FF47"/>
<path d="M12.6264 197.7C13.3534 197.7 13.9427 197.111 13.9427 196.384C13.9427 195.657 13.3534 195.068 12.6264 195.068C11.8994 195.068 11.3101 195.657 11.3101 196.384C11.3101 197.111 11.8994 197.7 12.6264 197.7Z" fill="#00FF47"/>
<path d="M22.7226 197.7C23.4496 197.7 24.0389 197.111 24.0389 196.384C24.0389 195.657 23.4496 195.068 22.7226 195.068C21.9956 195.068 21.4062 195.657 21.4062 196.384C21.4062 197.111 21.9956 197.7 22.7226 197.7Z" fill="#00FF47"/>
<path d="M32.8187 197.7C33.5457 197.7 34.1351 197.111 34.1351 196.384C34.1351 195.657 33.5457 195.068 32.8187 195.068C32.0917 195.068 31.5024 195.657 31.5024 196.384C31.5024 197.111 32.0917 197.7 32.8187 197.7Z" fill="#00FF47"/>
<path d="M42.915 197.7C43.642 197.7 44.2313 197.111 44.2313 196.384C44.2313 195.657 43.642 195.068 42.915 195.068C42.188 195.068 41.5986 195.657 41.5986 196.384C41.5986 197.111 42.188 197.7 42.915 197.7Z" fill="#00FF47"/>
<path d="M53.0113 197.7C53.7382 197.7 54.3279 197.111 54.3279 196.384C54.3279 195.657 53.7382 195.068 53.0113 195.068C52.2845 195.068 51.6948 195.657 51.6948 196.384C51.6948 197.111 52.2845 197.7 53.0113 197.7Z" fill="#00FF47"/>
<path d="M63.1075 197.7C63.8344 197.7 64.4241 197.111 64.4241 196.384C64.4241 195.657 63.8344 195.068 63.1075 195.068C62.3807 195.068 61.791 195.657 61.791 196.384C61.791 197.111 62.3807 197.7 63.1075 197.7Z" fill="#00FF47"/>
<path d="M73.2042 197.7C73.9311 197.7 74.5202 197.111 74.5202 196.384C74.5202 195.657 73.9311 195.068 73.2042 195.068C72.4768 195.068 71.8877 195.657 71.8877 196.384C71.8877 197.111 72.4768 197.7 73.2042 197.7Z" fill="#00FF47"/>
<path d="M2.52968 188.933C3.25668 188.933 3.84604 188.344 3.84604 187.617C3.84604 186.89 3.25668 186.301 2.52968 186.301C1.80273 186.301 1.21338 186.89 1.21338 187.617C1.21338 188.344 1.80273 188.933 2.52968 188.933Z" fill="#00FF47"/>
<path d="M12.6264 188.933C13.3534 188.933 13.9427 188.344 13.9427 187.617C13.9427 186.89 13.3534 186.301 12.6264 186.301C11.8994 186.301 11.3101 186.89 11.3101 187.617C11.3101 188.344 11.8994 188.933 12.6264 188.933Z" fill="#00FF47"/>
<path d="M22.7226 188.933C23.4496 188.933 24.0389 188.344 24.0389 187.617C24.0389 186.89 23.4496 186.301 22.7226 186.301C21.9956 186.301 21.4062 186.89 21.4062 187.617C21.4062 188.344 21.9956 188.933 22.7226 188.933Z" fill="#00FF47"/>
<path d="M32.8187 188.933C33.5457 188.933 34.1351 188.344 34.1351 187.617C34.1351 186.89 33.5457 186.301 32.8187 186.301C32.0917 186.301 31.5024 186.89 31.5024 187.617C31.5024 188.344 32.0917 188.933 32.8187 188.933Z" fill="#00FF47"/>
<path d="M42.915 188.933C43.642 188.933 44.2313 188.344 44.2313 187.617C44.2313 186.89 43.642 186.301 42.915 186.301C42.188 186.301 41.5986 186.89 41.5986 187.617C41.5986 188.344 42.188 188.933 42.915 188.933Z" fill="#00FF47"/>
<path d="M53.0113 188.933C53.7382 188.933 54.3279 188.344 54.3279 187.617C54.3279 186.89 53.7382 186.301 53.0113 186.301C52.2845 186.301 51.6948 186.89 51.6948 187.617C51.6948 188.344 52.2845 188.933 53.0113 188.933Z" fill="#00FF47"/>
<path d="M63.1075 188.933C63.8344 188.933 64.4241 188.344 64.4241 187.617C64.4241 186.89 63.8344 186.301 63.1075 186.301C62.3807 186.301 61.791 186.89 61.791 187.617C61.791 188.344 62.3807 188.933 63.1075 188.933Z" fill="#00FF47"/>
<path d="M73.2042 188.933C73.9311 188.933 74.5202 188.344 74.5202 187.617C74.5202 186.89 73.9311 186.301 73.2042 186.301C72.4768 186.301 71.8877 186.89 71.8877 187.617C71.8877 188.344 72.4768 188.933 73.2042 188.933Z" fill="#00FF47"/>
<path d="M2.52968 180.166C3.25668 180.166 3.84604 179.577 3.84604 178.85C3.84604 178.123 3.25668 177.534 2.52968 177.534C1.80273 177.534 1.21338 178.123 1.21338 178.85C1.21338 179.577 1.80273 180.166 2.52968 180.166Z" fill="#00FF47"/>
<path d="M12.6264 180.166C13.3534 180.166 13.9427 179.577 13.9427 178.85C13.9427 178.123 13.3534 177.534 12.6264 177.534C11.8994 177.534 11.3101 178.123 11.3101 178.85C11.3101 179.577 11.8994 180.166 12.6264 180.166Z" fill="#00FF47"/>
<path d="M22.7226 180.166C23.4496 180.166 24.0389 179.577 24.0389 178.85C24.0389 178.123 23.4496 177.534 22.7226 177.534C21.9956 177.534 21.4062 178.123 21.4062 178.85C21.4062 179.577 21.9956 180.166 22.7226 180.166Z" fill="#00FF47"/>
<path d="M32.8187 180.166C33.5457 180.166 34.1351 179.577 34.1351 178.85C34.1351 178.123 33.5457 177.534 32.8187 177.534C32.0917 177.534 31.5024 178.123 31.5024 178.85C31.5024 179.577 32.0917 180.166 32.8187 180.166Z" fill="#00FF47"/>
<path d="M42.915 180.166C43.642 180.166 44.2313 179.577 44.2313 178.85C44.2313 178.123 43.642 177.534 42.915 177.534C42.188 177.534 41.5986 178.123 41.5986 178.85C41.5986 179.577 42.188 180.166 42.915 180.166Z" fill="#00FF47"/>
<path d="M53.0113 180.166C53.7382 180.166 54.3279 179.577 54.3279 178.85C54.3279 178.123 53.7382 177.534 53.0113 177.534C52.2845 177.534 51.6948 178.123 51.6948 178.85C51.6948 179.577 52.2845 180.166 53.0113 180.166Z" fill="#00FF47"/>
<path d="M63.1075 180.166C63.8344 180.166 64.4241 179.577 64.4241 178.85C64.4241 178.123 63.8344 177.534 63.1075 177.534C62.3807 177.534 61.791 178.123 61.791 178.85C61.791 179.577 62.3807 180.166 63.1075 180.166Z" fill="#00FF47"/>
<path d="M73.2042 180.166C73.9311 180.166 74.5202 179.577 74.5202 178.85C74.5202 178.123 73.9311 177.534 73.2042 177.534C72.4768 177.534 71.8877 178.123 71.8877 178.85C71.8877 179.577 72.4768 180.166 73.2042 180.166Z" fill="#00FF47"/>
<path d="M2.52968 171.4C3.25668 171.4 3.84604 170.81 3.84604 170.083C3.84604 169.357 3.25668 168.767 2.52968 168.767C1.80273 168.767 1.21338 169.357 1.21338 170.083C1.21338 170.81 1.80273 171.4 2.52968 171.4Z" fill="#00FF47"/>
<path d="M12.6264 171.4C13.3534 171.4 13.9427 170.81 13.9427 170.083C13.9427 169.357 13.3534 168.767 12.6264 168.767C11.8994 168.767 11.3101 169.357 11.3101 170.083C11.3101 170.81 11.8994 171.4 12.6264 171.4Z" fill="#00FF47"/>
<path d="M22.7226 171.4C23.4496 171.4 24.0389 170.81 24.0389 170.083C24.0389 169.357 23.4496 168.767 22.7226 168.767C21.9956 168.767 21.4062 169.357 21.4062 170.083C21.4062 170.81 21.9956 171.4 22.7226 171.4Z" fill="#00FF47"/>
<path d="M32.8187 171.4C33.5457 171.4 34.1351 170.81 34.1351 170.083C34.1351 169.357 33.5457 168.767 32.8187 168.767C32.0917 168.767 31.5024 169.357 31.5024 170.083C31.5024 170.81 32.0917 171.4 32.8187 171.4Z" fill="#00FF47"/>
<path d="M42.915 171.4C43.642 171.4 44.2313 170.81 44.2313 170.083C44.2313 169.357 43.642 168.767 42.915 168.767C42.188 168.767 41.5986 169.357 41.5986 170.083C41.5986 170.81 42.188 171.4 42.915 171.4Z" fill="#00FF47"/>
<path d="M53.0113 171.4C53.7382 171.4 54.3279 170.81 54.3279 170.083C54.3279 169.357 53.7382 168.767 53.0113 168.767C52.2845 168.767 51.6948 169.357 51.6948 170.083C51.6948 170.81 52.2845 171.4 53.0113 171.4Z" fill="#00FF47"/>
<path d="M63.1075 171.4C63.8344 171.4 64.4241 170.81 64.4241 170.083C64.4241 169.357 63.8344 168.767 63.1075 168.767C62.3807 168.767 61.791 169.357 61.791 170.083C61.791 170.81 62.3807 171.4 63.1075 171.4Z" fill="#00FF47"/>
<path d="M73.2042 171.4C73.9311 171.4 74.5202 170.81 74.5202 170.083C74.5202 169.357 73.9311 168.767 73.2042 168.767C72.4768 168.767 71.8877 169.357 71.8877 170.083C71.8877 170.81 72.4768 171.4 73.2042 171.4Z" fill="#00FF47"/>
<path d="M2.52968 162.633C3.25668 162.633 3.84604 162.043 3.84604 161.317C3.84604 160.59 3.25668 160 2.52968 160C1.80273 160 1.21338 160.59 1.21338 161.317C1.21338 162.043 1.80273 162.633 2.52968 162.633Z" fill="#00FF47"/>
<path d="M12.6264 162.633C13.3534 162.633 13.9427 162.043 13.9427 161.317C13.9427 160.59 13.3534 160 12.6264 160C11.8994 160 11.3101 160.59 11.3101 161.317C11.3101 162.043 11.8994 162.633 12.6264 162.633Z" fill="#00FF47"/>
<path d="M22.7226 162.633C23.4496 162.633 24.0389 162.043 24.0389 161.317C24.0389 160.59 23.4496 160 22.7226 160C21.9956 160 21.4062 160.59 21.4062 161.317C21.4062 162.043 21.9956 162.633 22.7226 162.633Z" fill="#00FF47"/>
<path d="M32.8187 162.633C33.5457 162.633 34.1351 162.043 34.1351 161.317C34.1351 160.59 33.5457 160 32.8187 160C32.0917 160 31.5024 160.59 31.5024 161.317C31.5024 162.043 32.0917 162.633 32.8187 162.633Z" fill="#00FF47"/>
<path d="M42.915 162.633C43.642 162.633 44.2313 162.043 44.2313 161.317C44.2313 160.59 43.642 160 42.915 160C42.188 160 41.5986 160.59 41.5986 161.317C41.5986 162.043 42.188 162.633 42.915 162.633Z" fill="#00FF47"/>
<path d="M53.0113 162.633C53.7382 162.633 54.3279 162.043 54.3279 161.317C54.3279 160.59 53.7382 160 53.0113 160C52.2845 160 51.6948 160.59 51.6948 161.317C51.6948 162.043 52.2845 162.633 53.0113 162.633Z" fill="#00FF47"/>
<path d="M63.1075 162.633C63.8344 162.633 64.4241 162.043 64.4241 161.317C64.4241 160.59 63.8344 160 63.1075 160C62.3807 160 61.791 160.59 61.791 161.317C61.791 162.043 62.3807 162.633 63.1075 162.633Z" fill="#00FF47"/>
<path d="M73.2042 162.633C73.9311 162.633 74.5202 162.043 74.5202 161.317C74.5202 160.59 73.9311 160 73.2042 160C72.4768 160 71.8877 160.59 71.8877 161.317C71.8877 162.043 72.4768 162.633 73.2042 162.633Z" fill="#00FF47"/>
<path d="M46.1354 -15.4745C50.9881 -10.7085 51.6813 -1.69653 53.1544 7.05552C54.541 15.8076 56.7075 24.2997 54.3677 31.8386C51.9412 39.3775 45.0089 45.9632 37.2967 47.6096C29.4979 49.2561 21.0058 45.8766 12.6003 42.5837C4.19489 39.3775 -4.1239 36.1713 -8.71657 30.0189C-13.3092 23.8664 -14.2624 14.6811 -11.3162 7.66211C-8.36994 0.556516 -1.52428 -4.29614 4.88812 -8.80217C11.3005 -13.3081 17.3663 -17.3809 24.9052 -19.114C32.3575 -20.8471 41.3695 -20.2405 46.1354 -15.4745Z" fill="url(#paint0_linear_76_2030)"/>
<path d="M59.0155 -5.09076C62.135 -2.02693 62.5811 3.76651 63.5277 9.39285C64.4192 15.0192 65.8119 20.4783 64.308 25.3248C62.7479 30.1712 58.2913 34.4049 53.3336 35.4634C48.3201 36.5218 42.8609 34.3492 37.4574 32.2324C32.0539 30.1712 26.7061 28.1101 23.7536 24.155C20.8012 20.1998 20.1884 14.295 22.0825 9.78279C23.9765 5.21487 28.3773 2.09532 32.4995 -0.801399C36.6218 -3.6981 40.5212 -6.31629 45.3677 -7.43042C50.1584 -8.54455 55.952 -8.15461 59.0155 -5.09076Z" fill="url(#paint1_linear_76_2030)"/>
<g filter="url(#filter1_d_76_2030)">
<rect x="39" y="36" width="192.24" height="127.44" rx="9.18" fill="white"/>
</g>
<g filter="url(#filter2_d_76_2030)">
<g filter="url(#filter3_di_76_2030)">
<path d="M108.696 79H83.424C78.7716 79 75 82.7716 75 87.424V112.696C75 117.348 78.7716 121.12 83.424 121.12H108.696C113.348 121.12 117.12 117.348 117.12 112.696V87.424C117.12 82.7716 113.348 79 108.696 79Z" fill="white"/>
</g>
<path d="M91.4099 97.8572L90.1843 107.953L89.5398 110.329C89.4219 110.742 89.2366 111.058 88.9838 111.277C88.7395 111.496 88.3899 111.605 87.935 111.605H86.6841L88.3394 97.8572L87.3412 97.6803C87.1558 97.6466 87.0042 97.5792 86.8863 97.4781C86.7683 97.3686 86.7094 97.2169 86.7094 97.0232C86.7094 97.0148 86.7094 96.9979 86.7094 96.9726C86.7178 96.9474 86.7262 96.8926 86.7346 96.8084C86.7431 96.7157 86.7557 96.5809 86.7725 96.404C86.7978 96.2187 86.8315 95.9618 86.8736 95.6332H88.6174L88.7311 94.6729C88.8238 93.9316 89.0175 93.2661 89.3124 92.6764C89.6156 92.0867 89.9947 91.5855 90.4496 91.1727C90.9129 90.7599 91.4436 90.444 92.0417 90.225C92.6399 90.006 93.2843 89.8965 93.9751 89.8965C94.5142 89.8965 95.0112 89.9765 95.4661 90.1366L95.1881 91.754C95.1713 91.8466 95.1291 91.9225 95.0617 91.9814C95.0028 92.032 94.927 92.0699 94.8343 92.0951C94.7416 92.1204 94.6363 92.1373 94.5184 92.1457C94.4089 92.1541 94.2952 92.1583 94.1772 92.1583C93.8403 92.1583 93.5286 92.2047 93.2422 92.2973C92.9642 92.39 92.7157 92.5416 92.4966 92.7522C92.286 92.9544 92.1091 93.224 91.9659 93.5609C91.8311 93.8895 91.7343 94.2938 91.6753 94.774L91.5742 95.6332H94.4805L94.1899 97.8572H91.4099ZM98.4573 101.471L95.4499 95.5195H98.2804C98.491 95.5195 98.6426 95.549 98.7353 95.608C98.828 95.6669 98.908 95.768 98.9754 95.9112L100.757 99.7778C100.808 99.6767 100.862 99.5757 100.921 99.4746C100.98 99.3651 101.048 99.2555 101.123 99.146L103.398 95.9618C103.499 95.8186 103.604 95.709 103.714 95.6332C103.823 95.5574 103.95 95.5195 104.093 95.5195H106.923L102.362 101.484L105.698 108.484H102.855C102.644 108.484 102.476 108.429 102.349 108.32C102.231 108.202 102.139 108.067 102.071 107.915L100.087 103.366C100.045 103.459 99.9989 103.552 99.9483 103.644C99.8978 103.737 99.8473 103.821 99.7967 103.897L96.9157 107.915C96.8062 108.059 96.684 108.189 96.5493 108.307C96.4145 108.425 96.2502 108.484 96.0565 108.484H93.3144L98.4573 101.471Z" fill="#0085FF"/>
</g>
<path d="M135.743 94.4536V96.0266H128.894V100.765H134.439V102.279H128.894V107.147H135.743V108.72H126.952V94.4536H135.743ZM138.642 108.72V100.148L137.526 100.019C137.387 99.9856 137.271 99.9358 137.178 99.8695C137.092 99.7965 137.049 99.6936 137.049 99.5608V98.8341H138.642V97.8584C138.642 97.281 138.721 96.7699 138.88 96.3253C139.046 95.8739 139.279 95.4956 139.577 95.1903C139.883 94.8784 140.248 94.6428 140.672 94.4835C141.097 94.3242 141.575 94.2445 142.106 94.2445C142.557 94.2445 142.976 94.3109 143.36 94.4436L143.321 95.3297C143.314 95.4624 143.258 95.5421 143.151 95.5686C143.045 95.5952 142.896 95.6085 142.703 95.6085H142.395C142.089 95.6085 141.811 95.6483 141.559 95.7279C141.313 95.8076 141.101 95.937 140.921 96.1162C140.742 96.2954 140.603 96.531 140.503 96.823C140.41 97.1151 140.364 97.4768 140.364 97.9082V98.8341H143.281V100.118H140.424V108.72H138.642ZM145.35 108.72V100.148L144.235 100.019C144.095 99.9856 143.979 99.9358 143.886 99.8695C143.8 99.7965 143.757 99.6936 143.757 99.5608V98.8341H145.35V97.8584C145.35 97.281 145.43 96.7699 145.589 96.3253C145.755 95.8739 145.987 95.4956 146.286 95.1903C146.591 94.8784 146.956 94.6428 147.381 94.4835C147.806 94.3242 148.283 94.2445 148.814 94.2445C149.266 94.2445 149.684 94.3109 150.069 94.4436L150.029 95.3297C150.022 95.4624 149.966 95.5421 149.86 95.5686C149.754 95.5952 149.604 95.6085 149.412 95.6085H149.103C148.798 95.6085 148.519 95.6483 148.267 95.7279C148.021 95.8076 147.809 95.937 147.63 96.1162C147.451 96.2954 147.311 96.531 147.212 96.823C147.119 97.1151 147.072 97.4768 147.072 97.9082V98.8341H149.989V100.118H147.132V108.72H145.35ZM155.652 98.4757C156.256 98.4757 156.814 98.5786 157.325 98.7843C157.836 98.9834 158.277 99.2755 158.649 99.6604C159.021 100.039 159.309 100.51 159.515 101.074C159.727 101.632 159.834 102.269 159.834 102.986C159.834 103.264 159.804 103.45 159.744 103.543C159.684 103.636 159.571 103.682 159.406 103.682H152.695C152.709 104.32 152.795 104.874 152.954 105.345C153.114 105.816 153.333 106.211 153.611 106.53C153.89 106.842 154.222 107.077 154.607 107.237C154.992 107.389 155.423 107.466 155.901 107.466C156.346 107.466 156.727 107.416 157.046 107.316C157.371 107.21 157.65 107.097 157.882 106.978C158.115 106.858 158.307 106.749 158.46 106.649C158.619 106.543 158.755 106.49 158.868 106.49C159.014 106.49 159.127 106.546 159.206 106.659L159.704 107.306C159.485 107.572 159.223 107.804 158.918 108.003C158.612 108.196 158.284 108.355 157.932 108.481C157.587 108.607 157.229 108.7 156.857 108.76C156.485 108.826 156.117 108.859 155.752 108.859C155.055 108.859 154.411 108.743 153.82 108.511C153.236 108.272 152.729 107.927 152.297 107.476C151.872 107.018 151.541 106.453 151.302 105.783C151.063 105.113 150.943 104.343 150.943 103.473C150.943 102.77 151.049 102.113 151.262 101.502C151.481 100.892 151.793 100.364 152.198 99.9192C152.603 99.4679 153.097 99.1162 153.681 98.864C154.265 98.6051 154.922 98.4757 155.652 98.4757ZM155.692 99.7799C154.836 99.7799 154.162 100.029 153.671 100.527C153.18 101.018 152.875 101.701 152.755 102.577H158.241C158.241 102.166 158.184 101.791 158.071 101.452C157.959 101.107 157.793 100.812 157.574 100.566C157.355 100.314 157.086 100.122 156.767 99.9889C156.455 99.8496 156.097 99.7799 155.692 99.7799ZM163.859 103.553L160.464 98.635H162.166C162.312 98.635 162.418 98.6582 162.485 98.7047C162.551 98.7511 162.611 98.8175 162.664 98.9038L165.133 102.687C165.193 102.501 165.279 102.315 165.392 102.129L167.562 98.9436C167.628 98.8507 167.695 98.7777 167.761 98.7246C167.827 98.6648 167.91 98.635 168.01 98.635H169.643L166.248 103.453L169.782 108.72H168.08C167.934 108.72 167.818 108.684 167.731 108.611C167.652 108.531 167.585 108.445 167.532 108.352L164.993 104.399C164.947 104.592 164.877 104.764 164.784 104.917L162.435 108.352C162.368 108.445 162.295 108.531 162.216 108.611C162.143 108.684 162.04 108.72 161.907 108.72H160.324L163.859 103.553ZM173.504 98.635V108.72H171.732V98.635H173.504ZM173.902 95.4691C173.902 95.6416 173.865 95.8043 173.792 95.9569C173.726 96.1029 173.633 96.2357 173.514 96.3551C173.401 96.468 173.268 96.5576 173.115 96.6239C172.963 96.6903 172.8 96.7235 172.628 96.7235C172.455 96.7235 172.292 96.6903 172.14 96.6239C171.994 96.5576 171.861 96.468 171.742 96.3551C171.629 96.2357 171.539 96.1029 171.473 95.9569C171.406 95.8043 171.373 95.6416 171.373 95.4691C171.373 95.2965 171.406 95.1339 171.473 94.9813C171.539 94.822 171.629 94.6859 171.742 94.5731C171.861 94.4536 171.994 94.3607 172.14 94.2943C172.292 94.2279 172.455 94.1948 172.628 94.1948C172.8 94.1948 172.963 94.2279 173.115 94.2943C173.268 94.3607 173.401 94.4536 173.514 94.5731C173.633 94.6859 173.726 94.822 173.792 94.9813C173.865 95.1339 173.902 95.2965 173.902 95.4691ZM177.025 108.72V100.148L175.91 100.019C175.771 99.9856 175.655 99.9358 175.562 99.8695C175.475 99.7965 175.432 99.6936 175.432 99.5608V98.8341H177.025V97.8584C177.025 97.281 177.105 96.7699 177.264 96.3253C177.43 95.8739 177.662 95.4956 177.961 95.1903C178.266 94.8784 178.631 94.6428 179.056 94.4835C179.481 94.3242 179.959 94.2445 180.49 94.2445C180.941 94.2445 181.359 94.3109 181.744 94.4436L181.704 95.3297C181.698 95.4624 181.641 95.5421 181.535 95.5686C181.429 95.5952 181.28 95.6085 181.087 95.6085H180.778C180.473 95.6085 180.194 95.6483 179.942 95.7279C179.697 95.8076 179.484 95.937 179.305 96.1162C179.126 96.2954 178.986 96.531 178.887 96.823C178.794 97.1151 178.747 97.4768 178.747 97.9082V98.8341H181.664V100.118H178.807V108.72H177.025ZM186.292 111.697C186.232 111.83 186.156 111.936 186.063 112.015C185.977 112.095 185.841 112.135 185.655 112.135H184.341L186.183 108.133L182.021 98.635H183.554C183.707 98.635 183.826 98.6748 183.913 98.7544C183.999 98.8274 184.062 98.9104 184.102 99.0033L186.8 105.355C186.86 105.501 186.909 105.647 186.949 105.793C186.996 105.939 187.035 106.088 187.069 106.241C187.115 106.088 187.162 105.939 187.208 105.793C187.255 105.647 187.308 105.498 187.367 105.345L189.986 99.0033C190.025 98.8971 190.092 98.8109 190.185 98.7445C190.284 98.6715 190.391 98.635 190.503 98.635H191.917L186.292 111.697ZM191.625 107.625C191.625 107.452 191.654 107.29 191.714 107.137C191.781 106.984 191.867 106.852 191.973 106.739C192.086 106.626 192.219 106.536 192.371 106.47C192.524 106.404 192.687 106.371 192.859 106.371C193.032 106.371 193.194 106.404 193.347 106.47C193.5 106.536 193.632 106.626 193.745 106.739C193.858 106.852 193.944 106.984 194.004 107.137C194.07 107.29 194.104 107.452 194.104 107.625C194.104 107.804 194.07 107.97 194.004 108.123C193.944 108.269 193.858 108.398 193.745 108.511C193.632 108.624 193.5 108.71 193.347 108.77C193.194 108.836 193.032 108.869 192.859 108.869C192.687 108.869 192.524 108.836 192.371 108.77C192.219 108.71 192.086 108.624 191.973 108.511C191.867 108.398 191.781 108.269 191.714 108.123C191.654 107.97 191.625 107.804 191.625 107.625Z" fill="#0085FF"/>
</g>
<defs>
<filter id="filter0_i_76_2030" x="0" y="0" width="270" height="200" filterUnits="userSpaceOnUse" color-interpolation-filters="sRGB">
<feFlood flood-opacity="0" result="BackgroundImageFix"/>
<feBlend mode="normal" in="SourceGraphic" in2="BackgroundImageFix" result="shape"/>
<feColorMatrix in="SourceAlpha" type="matrix" values="0 0 0 0 0 0 0 0 0 0 0 0 0 0 0 0 0 0 127 0" result="hardAlpha"/>
<feOffset/>
<feGaussianBlur stdDeviation="7.02"/>
<feComposite in2="hardAlpha" operator="arithmetic" k2="-1" k3="1"/>
<feColorMatrix type="matrix" values="0 0 0 0 0 0 0 0 0 0 0 0 0 0 0 0 0 0 0.4 0"/>
<feBlend mode="normal" in2="shape" result="effect1_innerShadow_76_2030"/>
</filter>
<filter id="filter1_d_76_2030" x="14.7" y="13.86" width="240.84" height="176.04" filterUnits="userSpaceOnUse" color-interpolation-filters="sRGB">
<feFlood flood-opacity="0" result="BackgroundImageFix"/>
<feColorMatrix in="SourceAlpha" type="matrix" values="0 0 0 0 0 0 0 0 0 0 0 0 0 0 0 0 0 0 127 0" result="hardAlpha"/>
<feOffset dy="2.16"/>
<feGaussianBlur stdDeviation="12.15"/>
<feComposite in2="hardAlpha" operator="out"/>
<feColorMatrix type="matrix" values="0 0 0 0 0 0 0 0 0 0 0 0 0 0 0 0 0 0 0.25 0"/>
<feBlend mode="normal" in2="BackgroundImageFix" result="effect1_dropShadow_76_2030"/>
<feBlend mode="normal" in="SourceGraphic" in2="effect1_dropShadow_76_2030" result="shape"/>
</filter>
<filter id="filter2_d_76_2030" x="69.06" y="76.1233" width="54.0001" height="54" filterUnits="userSpaceOnUse" color-interpolation-filters="sRGB">
<feFlood flood-opacity="0" result="BackgroundImageFix"/>
<feColorMatrix in="SourceAlpha" type="matrix" values="0 0 0 0 0 0 0 0 0 0 0 0 0 0 0 0 0 0 127 0" result="hardAlpha"/>
<feOffset dy="3.06327"/>
<feGaussianBlur stdDeviation="2.97"/>
<feComposite in2="hardAlpha" operator="out"/>
<feColorMatrix type="matrix" values="0 0 0 0 0 0 0 0 0 0 0 0 0 0 0 0 0 0 0.1 0"/>
<feBlend mode="normal" in2="BackgroundImageFix" result="effect1_dropShadow_76_2030"/>
<feBlend mode="normal" in="SourceGraphic" in2="effect1_dropShadow_76_2030" result="shape"/>
</filter>
<filter id="filter3_di_76_2030" x="58.152" y="66.364" width="75.8161" height="75.816" filterUnits="userSpaceOnUse" color-interpolation-filters="sRGB">
<feFlood flood-opacity="0" result="BackgroundImageFix"/>
<feColorMatrix in="SourceAlpha" type="matrix" values="0 0 0 0 0 0 0 0 0 0 0 0 0 0 0 0 0 0 127 0" result="hardAlpha"/>
<feOffset dy="4.212"/>
<feGaussianBlur stdDeviation="8.424"/>
<feColorMatrix type="matrix" values="0 0 0 0 0.392157 0 0 0 0 0.392157 0 0 0 0 0.435294 0 0 0 0.1 0"/>
<feBlend mode="normal" in2="BackgroundImageFix" result="effect1_dropShadow_76_2030"/>
<feBlend mode="normal" in="SourceGraphic" in2="effect1_dropShadow_76_2030" result="shape"/>
<feColorMatrix in="SourceAlpha" type="matrix" values="0 0 0 0 0 0 0 0 0 0 0 0 0 0 0 0 0 0 127 0" result="hardAlpha"/>
<feOffset dy="5.8968"/>
<feGaussianBlur stdDeviation="6.318"/>
<feComposite in2="hardAlpha" operator="arithmetic" k2="-1" k3="1"/>
<feColorMatrix type="matrix" values="0 0 0 0 0.870833 0 0 0 0 0.870833 0 0 0 0 0.870833 0 0 0 0.2 0"/>
<feBlend mode="normal" in2="shape" result="effect2_innerShadow_76_2030"/>
</filter>
<linearGradient id="paint0_linear_76_2030" x1="-13" y1="48.04" x2="55.0389" y2="-20.3616" gradientUnits="userSpaceOnUse">
<stop stop-color="#F87537"/>
<stop offset="1" stop-color="#FBA81F"/>
</linearGradient>
<linearGradient id="paint1_linear_76_2030" x1="21" y1="35.74" x2="64.7395" y2="-8.23253" gradientUnits="userSpaceOnUse">
<stop stop-color="#F87537" stop-opacity="0.25"/>
<stop offset="1" stop-color="#FBA81F" stop-opacity="0.25"/>
</linearGradient>
<clipPath id="clip0_76_2030">
<rect width="270" height="200" fill="white"/>
</clipPath>
</defs>
</svg>
